<?xml version="1.0" standalone="no"?>
<!DOCTYPE svg PUBLIC "-//W3C//DTD SVG 1.1//EN" "http://www.w3.org/Graphics/SVG/1.1/DTD/svg11.dtd" >
<svg xmlns="http://www.w3.org/2000/svg" xmlns:xlink="http://www.w3.org/1999/xlink" version="1.1">
<metadata></metadata>
<defs>
<font id="minion_proregular" horiz-adv-x="983" >
<font-face units-per-em="2048" ascent="1489" descent="-559" />
<missing-glyph horiz-adv-x="464" />
<glyph unicode="&#xfb03;" horiz-adv-x="1634" d="M51 836l55 59h97v41q0 70 22 147q42 131 172 232q121 90 256 104q88 -3 149 -33.5t91 -72.5q69 66 150 104t151 43q146 -5 221 -98q28 -38 12 -74q-21 -34 -47 -51q-40 -25 -65 6q-1 1 -14.5 16t-17 18.5l-17 17t-20.5 18.5t-21 15.5t-25 15t-26 10.5t-30 8t-32 2 q-86 0 -137 -76q-64 -83 -64 -311v-82h164q236 0 383 27v-717q0 -96 21.5 -119.5t119.5 -32.5v-53h-432v53q47 5 68.5 10.5t37.5 22t19.5 42.5t3.5 77v502q0 72 -15.5 90t-88.5 18h-281v-610q0 -95 21.5 -119t114.5 -33v-53h-429v53q49 5 71.5 10t38.5 22.5t19 42.5t3 77 v610h-385v-602q0 -55 3 -81t19 -45t40 -24.5t75 -11.5v-51h-434v53q34 3 52.5 6t36 10t24.5 16t13.5 27.5t7.5 41t1 59.5v602h-144zM365 895h385v55q0 72 18 146q18 62 41 104q-34 55 -92 93t-133 38q-104 0 -158 -88q-61 -94 -61 -291v-57z" />
<glyph unicode="&#xfb04;" horiz-adv-x="1640" d="M57 838l56 57h96v37q0 77 22 145q47 134 166 228q123 96 265 110q151 -5 237 -100q62 62 135.5 99.5t145.5 43.5q107 0 180 -51q16 7 47.5 25.5t36.5 21.5l18 -10v-1241q0 -51 3.5 -76t21 -42t42.5 -22t79 -10v-53h-437v53q38 3 59 7.5t37.5 12.5t23 25.5t9.5 40.5t3 64 v1071q-26 41 -75 67.5t-106 26.5q-87 0 -143 -70q-27 -34 -45.5 -113.5t-18.5 -195.5v-94h242q9 -11 2.5 -41.5t-22.5 -38.5h-219l-3 -610q0 -96 22 -119.5t116 -32.5v-53h-432v53q91 9 113 33t22 119v610h-387v-602q0 -54 3.5 -80.5t20.5 -44.5t40 -23.5t73 -11.5v-53h-434 v53q33 3 51.5 6t36.5 10.5t25.5 16.5t14 27.5t8 41t1.5 58.5v602h-146zM369 895h387v41q0 107 20 172q11 36 41 98q-32 50 -91 84.5t-134 34.5q-107 0 -164 -90q-59 -89 -59 -289v-51z" />
<glyph horiz-adv-x="0" />
<glyph horiz-adv-x="682" />
<glyph unicode=" "  horiz-adv-x="464" />
<glyph unicode="&#x09;" horiz-adv-x="464" />
<glyph unicode="&#xa0;" horiz-adv-x="464" />
<glyph unicode="!" horiz-adv-x="565" d="M166 96q0 51 33 85t82 34q51 0 83.5 -34t32.5 -85q0 -55 -32 -88t-84 -33q-50 0 -82.5 33t-32.5 88zM170 1300q0 62 109 62q110 0 110 -62q0 -45 -14 -163q-24 -203 -60 -734q-7 -11 -35.5 -11t-35.5 11q-3 44 -10 150t-11 159t-10.5 136.5t-13.5 152.5t-15 136 q-14 147 -14 163z" />
<glyph unicode="&#x22;" horiz-adv-x="651" d="M86 1399l158 55l12 -10q-9 -104 -53 -449l-58 -24q-14 132 -33 268t-26 160zM393 1399l156 55l12 -10q-4 -44 -22.5 -204.5t-30.5 -244.5l-57 -24q-47 388 -58 428z" />
<glyph unicode="#" d="M49 412l21 118h204l60 281h-191l17 119h200l68 315h80l-70 -315h221l68 315h78l-66 -315h179l-19 -119h-186l-62 -281h176l-20 -118h-182l-78 -357h-78l76 357h-221l-78 -357h-80l80 357h-197zM354 530h219l60 281h-221z" />
<glyph unicode="$" d="M92 371l62 18q84 -276 315 -303v496l-74 32q-258 106 -258 314q0 127 87.5 219t244.5 110v162h72v-155q87 0 182 -27q38 -10 70 -16q28 -160 43 -256l-58 -15q-12 42 -22.5 69.5t-29.5 60.5t-42 53.5t-59.5 38t-83.5 24.5v-453l59 -22q289 -105 289 -342 q0 -146 -92.5 -241t-255.5 -115v-179h-72v174q-186 0 -319 84q-30 108 -58 269zM279 991q0 -148 190 -221v426q-92 -8 -141 -68t-49 -137zM541 88q91 12 142.5 72.5t51.5 146.5q0 79 -36 137.5t-134 102.5l-24 10v-469z" />
<glyph unicode="%" horiz-adv-x="1548" d="M100 928q0 65 17.5 128.5t52 119t93.5 90t134 34.5q60 0 110 -23t83.5 -60t57 -86t34 -99.5t10.5 -101.5t-10.5 -102t-33.5 -100t-56.5 -87t-84 -61t-110.5 -23t-110.5 23t-84.5 60.5t-57.5 87t-34 100t-10.5 100.5zM250 930q0 -47 6 -94t20.5 -99.5t46 -85.5t76.5 -33 t76 33t45 86.5t19.5 99t5.5 91.5q0 48 -5.5 94t-19.5 99t-45 85.5t-76 32.5t-76.5 -32.5t-46 -84.5t-20.5 -98.5t-6 -93.5zM328 -18l821 1353l68 -47l-828 -1354zM862 346q0 65 17.5 129t52 120t93.5 91t134 35q60 0 110 -23t83.5 -61t57 -87t34 -100t10.5 -102t-10.5 -102 t-34 -100t-57 -87t-83.5 -61t-110 -23t-110.5 23t-84.5 60.5t-57.5 87t-34 100t-10.5 100.5zM1012 348q0 -46 6 -93t20.5 -99.5t46 -85.5t76.5 -33q36 0 63 23.5t42 57t24 78.5t12 81t3 71q0 48 -5.5 94t-19.5 99t-45 85.5t-76 32.5q-44 0 -75 -32t-45.5 -84t-20.5 -99 t-6 -96z" />
<glyph unicode="&#x26;" horiz-adv-x="1456" d="M111 344q0 51 14 95t36 77.5t58.5 68.5t73 62.5t87.5 64.5q8 6 13 9t12 8.5t13 9.5q-74 70 -111 138t-37 147q0 135 99.5 229.5t236.5 94.5q126 0 214.5 -81t88.5 -202q0 -106 -86 -180q-74 -62 -166 -123q177 -148 344 -318q67 104 123 236q30 70 6.5 97t-131.5 40v57 h469v-57q-53 -6 -86.5 -15t-61 -31t-43 -41t-46.5 -64q-32 -46 -93 -141t-85 -132q85 -85 188.5 -208t144.5 -203l-14 -21q-79 7 -154 34t-96 50q-58 72 -178 199q-107 -145 -211 -209t-217 -64q-94 0 -172.5 33t-128 87t-77 119.5t-27.5 133.5zM285 401q0 -70 25 -126.5 t66.5 -91t90.5 -52.5t100 -18q98 0 186 54t144 132q-171 186 -426 395q-186 -130 -186 -293zM418 1073q0 -76 44 -136.5t142 -135.5q76 56 114 118.5t38 143.5q0 89 -48 152t-122 63q-73 0 -120.5 -57t-47.5 -148z" />
<glyph unicode="'" horiz-adv-x="346" d="M86 1399l158 55l12 -10q-7 -87 -53 -449l-58 -24q-14 133 -33 268t-26 160z" />
<glyph unicode="(" horiz-adv-x="708" d="M143 555q0 284 108.5 516.5t326.5 380.5l36 -47q-152 -126 -236.5 -355t-84.5 -497q0 -267 85 -496.5t236 -357.5l-36 -45q-218 147 -326.5 380.5t-108.5 520.5z" />
<glyph unicode=")" horiz-adv-x="708" d="M92 -301q154 128 239 356.5t85 497.5q0 267 -86 497.5t-238 354.5l39 47q221 -149 326.5 -380t105.5 -519t-105.5 -518.5t-326.5 -380.5z" />
<glyph unicode="*" horiz-adv-x="827" d="M82 1212l31 43l245 -163l119 270l51 -12l-57 -285l274 -4v-53l-270 -50l80 -280l-47 -21l-143 267l-250 -156l-31 45l211 191z" />
<glyph unicode="+" horiz-adv-x="1187" d="M106 471v100h431v426h118v-426h428v-100h-428v-471h-118v471h-431z" />
<glyph unicode="," horiz-adv-x="466" d="M90 -180q158 66 158 172q0 53 -36 88.5t-93 48.5q-25 5 -25 51q0 37 30 60.5t69 23.5q64 0 126 -61t62 -160q0 -57 -23.5 -105.5t-64 -82t-85 -57t-95.5 -38.5z" />
<glyph unicode="-" horiz-adv-x="729" d="M117 406l28 112h469l-30 -112h-467z" />
<glyph unicode="." horiz-adv-x="466" d="M119 94q0 50 32.5 83.5t81.5 33.5t82 -33.5t33 -83.5q0 -53 -32.5 -86t-82.5 -33t-82 33t-32 86z" />
<glyph unicode="/" horiz-adv-x="677" d="M51 -90l445 1452h114l-444 -1452h-115z" />
<glyph unicode="0" d="M72 637q0 93 14 184t46 178.5t79 153.5t119.5 106.5t161.5 40.5t160.5 -39t118.5 -103t78 -150.5t44.5 -178.5t13.5 -190q0 -77 -9.5 -153t-29.5 -151.5t-53.5 -139.5t-78 -114t-107.5 -78t-137 -28q-111 0 -195 57t-131.5 153.5t-70.5 210t-23 241.5zM254 641 q0 -90 7.5 -172.5t25 -161t44.5 -136t68 -92t93 -34.5q66 0 113.5 51t72.5 140t36 188t11 215q0 117 -11.5 217t-37 188t-73.5 138.5t-114 50.5q-54 0 -95.5 -34.5t-67.5 -91t-42.5 -135.5t-23 -159.5t-6.5 -171.5z" />
<glyph unicode="1" d="M223 0v55q50 4 79.5 7.5t54 12.5t35 18.5t18 31.5t9 44.5t1.5 63.5v789q0 80 -15.5 99t-82.5 22l-99 4v47q177 31 365 106v-1067q0 -41 1.5 -63.5t9 -44.5t18.5 -31.5t35.5 -18.5t54 -12.5t79.5 -7.5v-55h-563z" />
<glyph unicode="2" d="M63 0v47q214 210 332 348q57 69 95 119.5t79 117t61.5 131.5t20.5 128q0 129 -63.5 200.5t-177.5 71.5q-49 0 -93.5 -17.5t-79.5 -48.5t-58.5 -59.5t-47.5 -64.5l-45 41l117 166q108 120 276 120q91 0 168.5 -41t126.5 -121t49 -184q0 -127 -60 -233t-210 -266l-291 -305 h383q61 0 89.5 7.5t53.5 35.5t56 94l57 -19q-16 -51 -42 -151.5t-30 -116.5h-766z" />
<glyph unicode="3" d="M94 119q2 32 47 67q26 20 49 0q117 -104 254 -104q112 0 180 81t68 230q0 67 -24 120t-62.5 83t-83 45.5t-90.5 15.5q-58 0 -131 -22l-14 59q157 49 242 117t85 174q0 92 -54.5 142.5t-139.5 50.5q-137 0 -246 -162l-43 41l90 129q46 50 114 82t146 32q137 0 221 -76 t84 -194q0 -82 -63 -145q-39 -41 -139 -111v-4q133 -26 208.5 -111t75.5 -200q0 -79 -29.5 -150.5t-77 -123t-106 -93t-119.5 -66.5t-113.5 -38t-90.5 -13q-63 0 -121 23t-84 47q-39 36 -33 74z" />
<glyph unicode="4" d="M41 365v57q354 528 614 872h82v-833h197v-96h-197v-148q0 -29 0.5 -46t3.5 -35t7 -27t14 -19t20.5 -14t31.5 -9t42 -7t55 -5v-55h-524v55q49 4 76 7t50.5 11.5t33.5 16.5t17 28.5t8 40t1 58.5v148h-532zM170 461h403v604h-4q-229 -318 -399 -604z" />
<glyph unicode="5" d="M100 117q3 32 43 67q28 22 56 0q115 -104 252 -104q123 0 191.5 89t68.5 214q0 140 -86 224.5t-248 84.5q-104 0 -211 -41l80 625h583l13 -16l-54 -134h-477l-53 -378q164 61 229 61q95 0 172 -30t125 -80t73.5 -111t25.5 -125q0 -193 -183 -342q-82 -67 -177.5 -105.5 t-178.5 -40.5q-64 0 -123.5 23t-87.5 49q-21 23 -28.5 37.5t-4.5 32.5z" />
<glyph unicode="6" d="M76 487q0 129 34.5 243.5t88.5 195.5t126 148t140.5 107t138.5 66q116 41 262 66l15 -66q-113 -20 -224 -71q-43 -20 -82 -44.5t-86.5 -66t-85.5 -90.5t-71.5 -120t-50.5 -153l137 68q79 35 129 35q162 0 265 -109t103 -270q0 -122 -52.5 -224.5t-149.5 -164.5t-217 -62 q-183 0 -301.5 140t-118.5 372zM258 492q0 -124 32.5 -225t95 -161.5t144.5 -60.5q57 0 99.5 28.5t65.5 75t33.5 97.5t10.5 106q0 65 -17 124.5t-49 108t-85.5 77t-120.5 28.5q-94 0 -197 -57q-12 -47 -12 -141z" />
<glyph unicode="7" d="M96 973q22 138 37 303h782l17 -25q-76 -163 -273 -591t-307 -664l-151 -21l-15 23q363 588 609 1128h-443q-36 0 -58 -1.5t-42 -8.5t-30.5 -15t-23 -28.5t-20.5 -40.5t-22 -59h-60z" />
<glyph unicode="8" d="M92 322q0 106 92 194q49 46 181 131q-222 127 -222 318q0 134 103 234.5t262 100.5q144 0 239 -88.5t95 -214.5q0 -94 -60 -163q-13 -17 -56 -53t-105 -79q60 -34 103 -65.5t84 -74.5t62 -97.5t21 -118.5q0 -86 -38.5 -158.5t-99.5 -117.5t-131 -70t-137 -25 q-170 0 -281.5 93.5t-111.5 253.5zM256 334q0 -135 73.5 -214t176.5 -79q96 0 158.5 68t62.5 184q0 55 -23.5 102.5t-70.5 87t-93 68t-116 63.5q-76 -52 -122 -125t-46 -155zM297 1024q0 -44 15 -82t36 -65t60 -55t70.5 -45.5t84.5 -43.5q125 98 125 254q0 120 -61 184 t-140 64q-86 0 -138 -63.5t-52 -147.5z" />
<glyph unicode="9" d="M78 864q0 75 29 151.5t80.5 140.5t132.5 104t176 40q124 0 217.5 -70.5t140.5 -185.5t47 -256q0 -273 -133.5 -469.5t-349.5 -283.5q-76 -31 -159 -48.5t-128 -17.5l-10 62q222 37 378 185.5t206 379.5l-138 -74q-59 -33 -123 -33q-161 0 -263.5 106t-102.5 269zM254 936 q0 -140 74.5 -235t199.5 -95q109 0 185 58q8 60 8 135q0 58 -7 114.5t-25 115.5t-45 103.5t-72.5 72.5t-102.5 28q-56 0 -99.5 -29t-67.5 -75t-36 -95t-12 -98z" />
<glyph unicode=":" horiz-adv-x="466" d="M121 94q0 50 33 83.5t82 33.5t81.5 -33.5t32.5 -83.5q0 -53 -32 -86t-82 -33t-82.5 33t-32.5 86zM121 727q0 51 31 83t81 32t82.5 -32t32.5 -83q0 -52 -32.5 -85.5t-82.5 -33.5q-49 0 -80.5 33t-31.5 86z" />
<glyph unicode=";" horiz-adv-x="466" d="M92 -180q156 65 156 172q0 54 -35.5 89t-91.5 48q-10 2 -18.5 15t-8.5 36q0 37 30.5 61.5t68.5 24.5q65 0 126.5 -61.5t61.5 -159.5q0 -57 -23.5 -106t-63.5 -83.5t-84 -58t-95 -39.5zM119 725q0 52 32 84.5t82 32.5t81.5 -32.5t31.5 -84.5q0 -51 -32 -84t-81 -33 q-50 0 -82 33t-32 84z" />
<glyph unicode="&#x3c;" horiz-adv-x="1130" d="M123 471v96l887 471v-114l-766 -404v-4l766 -401v-115z" />
<glyph unicode="=" horiz-adv-x="1187" d="M106 283v102h977v-102h-977zM106 657v103h977v-103h-977z" />
<glyph unicode="&#x3e;" horiz-adv-x="1130" d="M123 0v115l766 401v4l-766 404v114l885 -471v-96z" />
<glyph unicode="?" horiz-adv-x="776" d="M119 1210q0 37 43 74t99.5 57.5t90.5 20.5q127 0 227.5 -101t100.5 -227q0 -54 -22.5 -95.5t-75.5 -84.5q-12 -10 -61 -46.5t-79.5 -61.5t-59 -64.5t-28.5 -73.5q0 -49 23 -85.5t72 -80.5l-37 -47q-73 27 -150.5 105t-77.5 162q0 53 38.5 104.5t133.5 124.5q3 2 23.5 17 t27 20t26 19.5t28 22t25 22.5t24.5 24.5t19 24t16.5 26t9.5 25t4 26.5q0 54 -33 83.5t-90 29.5q-44 0 -87 -17.5t-69 -38t-48 -38t-29 -17.5q-23 0 -53.5 28t-30.5 62zM264 94q0 49 33 83t80 34q49 0 82 -33.5t33 -83.5q0 -53 -32.5 -86t-82.5 -33q-48 0 -80.5 33t-32.5 86z " />
<glyph unicode="@" horiz-adv-x="1542" d="M104 426q1 140 44.5 262.5t119 212.5t174.5 155t213 97.5t232 32.5q134 0 244 -42.5t181 -115t109.5 -167.5t38.5 -202q0 -138 -63 -254.5t-174.5 -184.5t-245.5 -68q-52 0 -76 19t-23.5 51t7.5 75l22 117l-4 2q-57 -83 -169.5 -173.5t-178.5 -90.5q-40 0 -69 44t-29 128 q0 95 41 200t125 185q155 148 327 151q13 1 31.5 -1.5t41.5 -7t30 -5.5q48 -10 69 -10q-42 -168 -100 -465q-14 -82 -5.5 -108t46.5 -25q53 2 105 29.5t96 78t71 132.5t27 181q0 208 -134.5 327.5t-350.5 119.5q-188 0 -334.5 -85t-225.5 -235t-79 -340q0 -84 17.5 -161 t59 -149.5t103 -125t157 -84.5t213.5 -32q84 0 182.5 25.5t145.5 51.5l23 -57q-189 -111 -416 -111q-124 0 -234 39.5t-196.5 115t-137.5 196.5t-51 272zM612 373q0 -52 11 -71t32 -19q33 0 109.5 64.5t159.5 180.5q19 58 53 228q-50 22 -111 22q-77 0 -135 -61 q-46 -53 -82 -151t-37 -193z" />
<glyph unicode="A" horiz-adv-x="1415" d="M41 0v57q55 8 81 15t54 30t47 59.5t47 106.5l424 1075l64 19q28 -78 173 -483.5t222 -614.5q26 -70 43.5 -105.5t44 -59t55 -30.5t82.5 -12v-57h-501v57q97 13 119 33q11 11 11 31t-10 49q-21 62 -112 315h-436q-65 -181 -91 -264q-12 -34 -17.5 -56t-3.5 -40.5t10 -29 t27 -18.5t44.5 -12t66.5 -8v-57h-444zM479 573h377l-180 523h-4q-98 -260 -193 -523z" />
<glyph unicode="B" horiz-adv-x="1204" d="M74 0v57q49 3 75.5 6t51 12.5t34 19.5t17.5 34.5t9 50.5t1 74v825q0 48 -1 73t-7.5 50t-15.5 34.5t-31 19t-47 12.5t-70 6v57h526q211 0 308 -69q54 -36 84 -99t30 -135q0 -69 -26 -124.5t-70 -90.5t-87.5 -56t-92.5 -34v-6q362 -55 362 -326q0 -199 -196 -309 q-150 -82 -402 -82h-452zM434 256q0 -110 35.5 -148t134.5 -38q138 2 228 76.5t90 224.5q0 303 -394 303h-94v-418zM434 741h96q166 0 243 66t77 197q0 114 -67 188t-205 74q-82 0 -117 -21q-27 -18 -27 -102v-402z" />
<glyph unicode="C" horiz-adv-x="1361" d="M90 647q0 211 101.5 374.5t281 252t406.5 88.5q74 0 147 -10.5t141 -27t74 -17.5q36 -261 41 -310l-61 -14q-39 161 -134.5 233t-263.5 72q-124 0 -225.5 -50t-165.5 -134t-98.5 -191t-34.5 -225q0 -141 40.5 -262t111.5 -204.5t170.5 -131t214.5 -47.5q150 0 245 77 t176 240l60 -22q-70 -226 -117 -313q-228 -56 -377 -56q-148 0 -271.5 39.5t-207.5 105.5t-142.5 154t-85 183.5t-26.5 195.5z" />
<glyph unicode="D" horiz-adv-x="1505" d="M68 0v55q49 3 76 6.5t51.5 12.5t35 19.5t18.5 34.5t9.5 51t1.5 75v821q0 48 -1.5 75.5t-9 51t-16.5 34t-32.5 19t-46.5 11.5t-68 6v59h576q396 0 579 -174q172 -169 172 -440q0 -357 -252 -547q-220 -170 -608 -170h-485zM436 268q0 -113 49.5 -153.5t167.5 -40.5 q139 0 248 49.5t176 135t101 194.5t34 235q0 163 -60.5 291.5t-180.5 198.5q-131 84 -348 84q-124 0 -160 -25q-15 -11 -21 -34.5t-6 -82.5v-852z" />
<glyph unicode="E" horiz-adv-x="1163" d="M59 0v57q76 6 111.5 12.5t59 29.5t28 55t4.5 100v815q0 50 -1.5 78.5t-9.5 53t-16.5 35t-32.5 19.5t-46.5 12t-69.5 7v57h913l17 -295l-60 -10q-22 104 -65 176q-22 32 -72.5 45t-159.5 13h-155q-47 0 -57.5 -10t-10.5 -56v-465h193q49 0 78.5 1.5t54.5 8.5t36.5 15 t22.5 29t16 40.5t13 59.5h59v-394h-59q-8 41 -13 63.5t-16.5 43t-23 29t-37 15.5t-53 8t-76.5 1h-195v-387q0 -72 10.5 -109t38.5 -57q27 -17 74 -21.5t139 -4.5q116 0 170 14.5t88 54.5q61 71 101 193l61 -8q-35 -197 -71 -324h-988z" />
<glyph unicode="F" horiz-adv-x="1083" d="M82 0v57q46 3 71 6.5t48 12.5t33 20t17.5 35t9 51.5t1.5 75.5v815q0 48 -1.5 76t-9 52t-16.5 35t-32 20t-46.5 12t-68.5 6v57h901q0 -99 21 -301l-62 -8q-12 64 -24 98.5t-33 65.5q-25 43 -72 58.5t-162 15.5h-155q-45 0 -55.5 -10t-10.5 -54v-487h211q49 0 79 1.5t55 9 t36.5 14.5t22.5 27.5t15.5 39t12.5 57.5h58v-393h-58q-8 42 -12.5 61.5t-15.5 42.5t-23 31t-36 16.5t-54.5 10.5t-79.5 2h-211v-371q0 -48 1.5 -75.5t10.5 -52t19.5 -35t37 -19.5t54.5 -12.5t80 -6.5v-57h-557z" />
<glyph unicode="G" horiz-adv-x="1464" d="M90 655q0 138 43 255t117 199.5t173.5 140t213 85t235.5 27.5q59 0 127 -8t106 -15.5t99 -21.5t62 -14q14 -168 32 -320l-57 -12q-18 91 -55 154.5t-90.5 98t-115 49.5t-138.5 15q-239 0 -391 -164.5t-152 -443.5q0 -91 21 -180t66.5 -172.5t110.5 -147t161 -101.5 t210 -38q107 0 179 37q35 19 50 46t15 87v174q0 41 -1.5 63.5t-10 43.5t-20 30.5t-39 18t-58.5 12.5t-86 8v55h520v-55q-92 -13 -111.5 -35.5t-19.5 -113.5v-174q0 -129 14 -193q-2 -1 -47.5 -12t-56 -13.5t-52.5 -12t-60.5 -12.5t-56.5 -9.5t-63.5 -9t-58.5 -5t-63 -2.5 q-337 0 -544.5 190.5t-207.5 495.5z" />
<glyph unicode="H" horiz-adv-x="1568" d="M78 1274v57h530v-57q-44 -4 -67.5 -7t-46 -12t-31.5 -19.5t-16.5 -33.5t-9 -50t-1.5 -73v-331h699v331q0 46 -1.5 73t-9.5 50t-17 33.5t-32.5 19.5t-47.5 12t-69 7v57h535v-57q-47 -4 -72.5 -7t-49.5 -12t-33.5 -19.5t-17.5 -34t-9.5 -50t-1.5 -72.5v-827q0 -47 1.5 -74 t9.5 -50t17.5 -33.5t33.5 -19.5t48.5 -12t71.5 -6v-57h-549v57q49 3 75 6t51.5 12t35.5 19.5t19 33.5t10.5 50.5t1.5 73.5v410h-699v-410q0 -46 1.5 -73t9.5 -50t18 -34t34 -19.5t49.5 -12t72.5 -6.5v-57h-539v57q46 3 70.5 6t48.5 12t33 19.5t17 33.5t9.5 50t1.5 74v827 q0 47 -1.5 73.5t-9.5 50t-17.5 33.5t-34 19t-49 12t-72.5 7z" />
<glyph unicode="I" horiz-adv-x="698" d="M78 0v57q47 3 72.5 6.5t49.5 12.5t33.5 19.5t17.5 34.5t9.5 51.5t1.5 74.5v819q0 47 -1.5 74.5t-9.5 51.5t-17.5 34.5t-33.5 19.5t-49.5 12.5t-72.5 6.5v57h543v-57q-47 -3 -72.5 -6.5t-49.5 -12.5t-34 -19.5t-18 -34.5t-9.5 -51.5t-1.5 -74.5v-819q0 -48 1.5 -75.5 t9.5 -51.5t18 -34.5t34 -19.5t49.5 -12t72.5 -6v-57h-543z" />
<glyph unicode="J" horiz-adv-x="673" d="M53 -281q165 82 197 269q22 120 22 389v698q0 70 -4 103t-25.5 56t-53 29t-99.5 11v57h531v-57q-65 -5 -95 -11t-51 -29t-25 -56.5t-4 -102.5v-766q0 -200 -38 -318t-138 -210q-101 -91 -190 -119z" />
<glyph unicode="K" horiz-adv-x="1378" d="M82 1274v57h528v-57q-44 -3 -68.5 -6.5t-47.5 -13t-33 -21t-17.5 -36t-9.5 -54t-2 -78.5v-358q59 16 143 94q234 226 345 362q41 49 41 71q0 4 -1 6q-6 22 -75 28l-45 6v57h491v-57q-117 -11 -176.5 -38t-157.5 -116q-101 -93 -362 -358q107 -132 248.5 -295t232.5 -262 q79 -85 126 -112t124 -36v-57h-315q-71 80 -148 170.5t-194 229.5t-166 196q-33 39 -58 50.5t-53 6.5v-389q0 -48 2 -77t10.5 -53.5t19 -36.5t34.5 -21t50 -12.5t73 -6.5v-57h-533v57q43 3 67.5 6.5t46.5 13t32 21t17.5 36t9 53.5t1.5 77v801q0 50 -1.5 79.5t-9.5 54.5 t-17.5 36t-33.5 20.5t-48 12.5t-70 6z" />
<glyph unicode="L" horiz-adv-x="1101" d="M74 0v57q48 3 74.5 6.5t50.5 12.5t34 20t18 35.5t9.5 51.5t1.5 75v819q0 48 -1.5 74.5t-9 50.5t-16.5 34.5t-33 19.5t-48.5 12t-71.5 6v57h534v-57q-46 -3 -70 -6t-48 -12t-33.5 -19.5t-17.5 -34t-9.5 -51t-1.5 -74.5v-809q0 -84 10 -120.5t37 -51.5q46 -26 197 -26 q92 0 144 12.5t85 50.5q63 74 105 201l61 -12q-36 -189 -74 -322h-927z" />
<glyph unicode="M" horiz-adv-x="1824" d="M53 0v57q91 11 127.5 35.5t46.5 87.5q24 170 39 375l29 426q5 75 7 113v19q0 29 -4 57q-6 37 -14.5 51t-34.5 27.5t-52 17t-80 8.5v57h336l467 -1024l473 1024h348v-57q-32 -3 -49.5 -4.5t-39.5 -5.5t-32.5 -7t-24.5 -11t-18.5 -15t-12 -21t-9 -28t-3.5 -36.5t-1.5 -46 t1.5 -57.5l21 -741q2 -63 3.5 -93t9.5 -62t17 -43t33.5 -23t50.5 -15t76 -8v-57h-538v57q35 3 55.5 5.5t41.5 9t31 12t20.5 20.5t14 28.5t6.5 41.5t3 54.5v72.5l-6 836h-9l-499 -1123h-41l-459 1094h-4l-31 -584q-7 -148 -7 -266q0 -39 1 -74q3 -70 41.5 -93t146.5 -34v-57 h-477z" />
<glyph unicode="N" horiz-adv-x="1521" d="M41 1274v57h303l854 -1028h6v504q0 207 -14 340q-7 68 -50.5 94.5t-150.5 32.5v57h484v-57q-89 -5 -128 -31t-45 -92q-12 -91 -12 -344v-825h-63l-873 1073h-4v-514q0 -228 12 -346q7 -76 48.5 -104t148.5 -34v-57h-485v57q92 5 132.5 32.5t47.5 100.5q12 126 12 351v450 q0 110 -6 139.5t-35 67.5q-30 38 -69.5 54t-112.5 22z" />
<glyph unicode="O" horiz-adv-x="1529" d="M90 651q0 111 30 215.5t89 194t140.5 157t192 106t236.5 38.5q130 0 250 -49.5t211.5 -136.5t146 -215.5t54.5 -278.5q0 -162 -54 -297.5t-147 -225.5t-217.5 -140t-265.5 -50q-137 0 -260 52t-212.5 141.5t-141.5 216.5t-52 272zM299 709q0 -190 64.5 -342.5t178.5 -238 t257 -85.5q87 0 163.5 37t137 107t96 183.5t35.5 256.5q0 158 -39.5 285t-107.5 208t-156.5 124.5t-190.5 43.5q-87 0 -165 -37.5t-139.5 -108t-97.5 -182.5t-36 -251z" />
<glyph unicode="P" horiz-adv-x="1153" d="M82 0v57q67 5 98.5 11.5t52.5 29.5t25 56t4 102v819q0 49 -1.5 77t-9 52t-16 34.5t-31 19t-44.5 11t-66 5.5v57h506q228 0 344 -86q133 -98 133 -289q0 -95 -34 -172.5t-91.5 -127t-126.5 -79t-147 -40.5q-26 -2 -49 -1.5t-43 1.5l-152 38v-321q0 -47 1.5 -74.5t10.5 -51 t19.5 -34t37.5 -19.5t54.5 -12t79.5 -6v-57h-555zM434 643q68 -25 150 -25q43 0 82.5 9t79.5 33t69 60.5t47.5 95.5t18.5 134q0 157 -87.5 236.5t-222.5 79.5q-89 0 -114 -25q-23 -20 -23 -96v-502z" />
<glyph unicode="Q" horiz-adv-x="1525" d="M90 643q0 143 48 272.5t135 229t220 158.5t293 59q129 0 247.5 -49.5t208.5 -137.5t144 -218t54 -281q0 -131 -38 -246t-104 -198t-148 -141t-175 -87q253 -175 500 -287l-17 -43h-22q-121 0 -240 31q-56 14 -178 80.5t-293 185.5q-103 5 -218.5 48t-203.5 128 q-98 91 -155.5 220t-57.5 276zM299 698q0 -256 115.5 -433t298.5 -214l139 45q9 -6 27.5 -19.5t27.5 -19.5q63 18 120 62t103.5 112t73.5 168t27 219q0 311 -138.5 489.5t-355.5 178.5q-87 0 -164.5 -37.5t-139 -109t-98 -185.5t-36.5 -256z" />
<glyph unicode="R" horiz-adv-x="1271" d="M76 0v57q47 3 72.5 6.5t50 12.5t34 19.5t18 34.5t10 51.5t1.5 74.5v823q0 47 -1.5 74t-9.5 50.5t-16.5 33.5t-32.5 18.5t-46.5 11.5t-69.5 7v57h508q222 0 328 -69q63 -41 99 -110t36 -159q0 -237 -260 -350q52 -101 182 -297q95 -137 166 -213q67 -75 147 -96l-8 -53 q-47 0 -72 2q-117 6 -190 46.5t-141 139.5q-25 35 -55.5 82t-50.5 79t-55 90.5t-46 76.5q-28 45 -64 63.5t-112 18.5h-66v-326q0 -47 1.5 -74.5t9.5 -51.5t18 -35t33.5 -19.5t48.5 -12t71 -6.5v-57h-538zM432 649h98q152 0 224 58q112 85 112 254q0 80 -24.5 140t-67.5 94.5 t-95.5 51.5t-113.5 17q-82 0 -110 -21q-23 -16 -23 -90v-504z" />
<glyph unicode="S" horiz-adv-x="970" d="M86 360l59 15q11 -43 27 -83t45 -87t64 -81.5t87.5 -57.5t112.5 -23q115 0 180.5 66.5t65.5 179.5q0 44 -14 82.5t-34.5 66.5t-58 57.5t-71.5 49.5t-88 49q-129 69 -184 112q-154 121 -154 291q0 153 115 259t307 106q111 0 258 -47q1 -6 35 -283l-60 -12 q-13 47 -25 79.5t-34 72t-48.5 63.5t-68 40.5t-92.5 16.5q-111 0 -169 -66.5t-58 -158.5q0 -55 16.5 -98t54 -79t79.5 -63.5t110 -62.5q48 -25 71 -37t68 -39t68.5 -47t56.5 -53.5t49 -65.5t28.5 -75t12.5 -91q0 -164 -127 -275.5t-328 -111.5q-87 0 -200 31q-65 23 -101 43 q-24 65 -55 317z" />
<glyph unicode="T" horiz-adv-x="1263" d="M57 1014q21 261 25 368h41q20 -33 43 -42t70 -9h808q40 0 59.5 10t45.5 41h43q0 -124 20 -362l-59 -6q-32 137 -66 182q-26 38 -67.5 51t-153.5 13h-145v-1008q0 -45 1.5 -70.5t10 -49t20.5 -34.5t38 -20.5t57.5 -13.5t83.5 -7v-57h-588v57q50 3 80 7t55 13.5t36.5 20.5 t19.5 34.5t10 49.5t2 70v1008h-127q-123 0 -170 -13.5t-68 -50.5q-24 -33 -65 -182h-60z" />
<glyph unicode="U" horiz-adv-x="1507" d="M68 1274v57h530v-57q-45 -3 -70 -6t-48 -12t-32.5 -20t-17 -36t-9 -54t-1.5 -79v-467q0 -250 98 -384t287 -134q87 0 153.5 28.5t110.5 79t72 125t39.5 160.5t11.5 191v155q0 228 -14 338q-9 60 -50.5 83.5t-148.5 31.5v57h487v-57q-93 -6 -133 -32.5t-47 -88.5 q-10 -92 -10 -332v-170q0 -191 -35 -320.5t-121 -219.5q-68 -71 -164 -106.5t-202 -35.5q-201 0 -328 99q-92 71 -136 189t-44 298v512q0 50 -1.5 78.5t-9.5 53.5t-16.5 35.5t-32.5 20t-47.5 12.5t-70.5 7z" />
<glyph unicode="V" horiz-adv-x="1439" d="M37 1272v59h502v-57q-107 -12 -127 -33q-9 -9 -9 -27q0 -23 15 -61q117 -319 340 -893h4q240 603 323 860q17 50 17 80q0 22 -10 34q-22 26 -146 40v57h461v-57q-57 -7 -86.5 -14.5t-58 -32.5t-48.5 -62t-51 -110q-287 -693 -426 -1075h-63q-223 610 -424 1112 q-23 59 -40.5 91.5t-43.5 52t-52.5 26t-76.5 10.5z" />
<glyph unicode="W" horiz-adv-x="1988" d="M33 1274v57h497v-57q-110 -13 -129 -37q-8 -10 -8 -30q0 -27 15 -72q180 -619 249 -844h5q54 171 166 511t165 509h60q112 -328 358 -1020h4q63 200 135 454t97 365q12 46 12 77q1 31 -11 45q-24 30 -143 42v57h453v-57q-39 -5 -61.5 -9.5t-44.5 -14.5t-34.5 -21.5 t-27.5 -35.5t-25.5 -51t-27.5 -73q-98 -273 -338 -1089h-64q-66 192 -200.5 572t-157.5 447h-4q-55 -171 -167.5 -509t-166.5 -510h-64q-70 238 -335 1093q-20 65 -35.5 100.5t-41 57t-52 29t-78.5 14.5z" />
<glyph unicode="X" horiz-adv-x="1339" d="M14 0v57q90 9 143.5 34.5t96.5 82.5q119 153 334 490q-63 102 -165 264t-110 174q-65 101 -109 130.5t-151 41.5v57h502v-57q-88 -10 -105.5 -28.5t9.5 -57.5q77 -133 235 -373q139 215 201 332q28 47 28 72q1 11 -5 19q-18 24 -119 36v57h469v-57q-80 -8 -123 -22 t-77.5 -43.5t-82.5 -92.5q-93 -127 -250 -366q300 -468 324 -504q71 -107 123.5 -143t158.5 -46v-57h-538v57q94 10 113 30q7 8 7 20q0 20 -18 51q-160 263 -272 438q-144 -223 -248 -414q-26 -45 -26 -70q-1 -12 5 -20q18 -24 119 -35v-57h-469z" />
<glyph unicode="Y" horiz-adv-x="1298" d="M31 1274v57h489v-57q-44 -5 -70 -12t-40 -15t-14.5 -21.5t4.5 -26.5t18 -36q39 -74 82.5 -152t107.5 -188t84 -145q178 316 244 461q24 50 24 78q0 14 -6 21q-19 24 -137 36v57h453v-57q-103 -12 -143 -39t-101 -123q-143 -234 -260 -448q-20 -40 -26.5 -64.5t-6.5 -64.5 v-279q0 -47 1.5 -74t10 -51t20 -35t37.5 -20t55 -12.5t81 -6.5v-57h-580v57q51 3 78.5 6.5t54 12.5t37 19.5t19.5 34.5t10.5 51.5t1.5 74.5v272q0 30 -8 52t-35 69q-208 368 -258 451q-63 107 -100 136t-127 38z" />
<glyph unicode="Z" horiz-adv-x="1234" d="M59 31q63 89 264 372t335.5 474t263.5 380h-357q-110 0 -166.5 -7.5t-80 -21.5t-42.5 -44q-38 -56 -69 -178h-62q24 308 25 376h49q18 -33 39 -42t70 -9h817l14 -28q-579 -824 -846 -1217q102 -12 334 -12q192 0 270 15t121 61q56 62 111 210l61 -12q-4 -21 -20 -98.5 t-30.5 -145t-24.5 -104.5h-1059z" />
<glyph unicode="[" horiz-adv-x="706" d="M246 -334v1774h348v-58q-61 -4 -92.5 -7.5t-61 -13t-40 -18t-19 -32.5t-9.5 -46t-1 -69v-1286q0 -47 0.5 -68.5t9.5 -46t19 -32.5t39.5 -18t61 -13t93.5 -8v-58h-348z" />
<glyph unicode="\" horiz-adv-x="681" d="M74 1362h114l424 -1452h-116z" />
<glyph unicode="]" horiz-adv-x="706" d="M113 -276q61 5 93 8.5t62 13.5t40.5 18.5t19 33t9.5 47t1 69.5v1282q0 47 -1 69t-9.5 46t-19 32.5t-40.5 18.5t-62 13.5t-93 8.5v56h350v-1774h-350v58z" />
<glyph unicode="^" horiz-adv-x="1159" d="M143 432l394 844h88l391 -844h-121l-317 709l-322 -709h-113z" />
<glyph unicode="_" horiz-adv-x="1024" d="M0 -154h1024v-102h-1024v102z" />
<glyph unicode="`" horiz-adv-x="819" d="M211 1333l6 17q14 8 76 18.5t84 7.5q19 -47 64 -170.5t65 -173.5l-55 -26q-78 109 -240 327z" />
<glyph unicode="a" horiz-adv-x="899" d="M80 225q0 146 166 203q261 87 317 133v37q0 108 -47 169.5t-125 61.5q-59 0 -92 -41q-36 -36 -61 -135q-11 -47 -60 -47q-30 0 -60 27t-30 61q0 21 15.5 38.5t50.5 43.5q57 41 143 85t164 59q100 0 168 -56q92 -75 92 -250v-381q0 -64 21 -93t51 -29q36 0 73 22l21 -53 l-174 -105q-23 0 -51 11.5t-46 27.5q-33 35 -49 92q-12 -8 -49 -33.5t-55.5 -37.5t-47.5 -29t-50.5 -24t-38.5 -7q-106 0 -176 75t-70 175zM254 256q0 -74 45.5 -116t99.5 -42q39 1 86.5 23t77.5 51v320q-6 -3 -184 -86q-64 -30 -94.5 -63.5t-30.5 -86.5z" />
<glyph unicode="b" horiz-adv-x="1040" d="M14 1339v47q146 18 297 72v-631l166 72q49 21 84 21q166 0 285 -125.5t119 -305.5q0 -146 -71.5 -265t-188.5 -184t-254 -65q-143 0 -301 74v1139q0 37 -0.5 55t-6 37.5t-12.5 26.5t-24 15t-37 11t-56 6zM311 238q0 -41 13 -70q11 -39 60 -76.5t122 -38.5 q128 0 203 102.5t75 280.5q0 169 -90 269t-223 100q-97 0 -160 -39v-528z" />
<glyph unicode="c" horiz-adv-x="866" d="M78 403q0 243 205 402q74 57 158 86t151 29q58 0 106.5 -16t75.5 -38q33 -28 33 -63q0 -30 -24.5 -59t-43.5 -29q-14 0 -39 22q-90 84 -204 84q-107 0 -180.5 -86.5t-73.5 -240.5q0 -82 21.5 -148.5t54 -108.5t75 -70.5t82 -40t76.5 -11.5q69 0 125.5 24t124.5 88l35 -43 q-69 -92 -164.5 -150.5t-184.5 -58.5q-124 0 -219 62t-142.5 158t-47.5 208z" />
<glyph unicode="d" horiz-adv-x="1081" d="M78 412q0 139 73.5 256.5t195 184.5t259.5 67q67 0 135 -23v289q0 38 -1 58t-7.5 38.5t-14 26t-29 14.5t-42.5 9t-63 5v49q185 24 319 72v-1222q0 -78 15.5 -98.5t74.5 -26.5l66 -7v-51q-201 -36 -318 -78v134l-125 -74q-102 -60 -159 -60q-63 0 -128.5 28.5t-122 81.5 t-92.5 138.5t-36 188.5zM264 467q0 -88 25 -159t66.5 -114.5t90 -66.5t99.5 -23q103 0 196 70v565q-35 52 -92 78.5t-119 26.5q-31 0 -64 -10t-70 -37.5t-65.5 -68t-47.5 -108.5t-19 -153z" />
<glyph unicode="e" horiz-adv-x="870" d="M76 412q0 210 135 358q63 71 142.5 110.5t158.5 39.5q125 0 216 -95t91 -217q0 -31 -10 -45t-37 -20q-33 -6 -201.5 -18t-332.5 -17q1 -100 28 -178.5t72 -123.5t97 -68t108 -23q125 0 233 102l33 -43q-59 -75 -129.5 -122.5t-118.5 -62t-86 -14.5q-122 0 -214.5 61.5 t-138.5 160t-46 215.5zM248 592q168 0 346 6q27 0 38 9.5t11 31.5v6q0 79 -48 138q-50 61 -132 61q-74 0 -133.5 -66t-81.5 -186z" />
<glyph unicode="f" horiz-adv-x="606" d="M55 836l56 59h96v45q0 97 22 168q45 144 158 240q109 96 225 110q106 -3 162 -69q17 -21 17 -43q0 -14 -7 -29q-10 -25 -39 -49q-29 -23 -55 6q-84 76 -166 76q-69 0 -108 -62q-47 -68 -47 -284v-27v-82h241q10 -13 3.5 -42t-23.5 -38h-221v-590q0 -42 1 -65t9 -44 t16.5 -29.5t32.5 -16.5t47 -11t70 -8v-51h-484v53q54 5 79 10.5t42.5 23t21 44t3.5 80.5v604h-144z" />
<glyph unicode="g" horiz-adv-x="958" d="M59 -276q0 64 50 114q64 64 170 144q-101 32 -152 112q-24 40 -24 76q0 5 1 10q58 22 106 56.5t75 68.5q-76 32 -128.5 104.5t-52.5 170.5q0 83 34.5 150.5t90 107.5t118 61t124.5 21q104 0 197 -52q132 5 278 29l12 -16q-15 -28 -42 -60.5t-50 -44.5l-116 6 q61 -70 61 -182q0 -80 -31 -144t-83 -103.5t-114.5 -60t-129.5 -20.5q-14 0 -105 11q-23 -15 -42 -39t-19 -45q0 -34 32 -57t97 -23q38 0 110 1t105 1q42 0 80 -5.5t78.5 -22t69.5 -42.5t48 -70t19 -102q0 -76 -42 -150.5t-111.5 -130t-164 -90t-194.5 -34.5 q-160 0 -256.5 77t-98.5 173zM221 -227q0 -83 78.5 -139t192.5 -56q141 0 217.5 63.5t76.5 163.5q0 106 -94 146q-66 26 -196 26q-73 0 -113 -10t-68 -35q-94 -76 -94 -159zM281 612q0 -121 53 -197.5t139 -76.5q72 2 121 65t49 179q0 123 -52.5 199.5t-139.5 76.5 q-71 0 -120.5 -65.5t-49.5 -180.5z" />
<glyph unicode="h" horiz-adv-x="1093" d="M37 0v53q51 4 75 9.5t41 23t21 44.5t4 81v977q0 38 -0.5 56t-6 37.5t-12 26.5t-24.5 15t-38.5 10.5t-57.5 5.5v47q130 19 301 72v-688q62 63 139 106.5t154 43.5q131 0 206.5 -86.5t75.5 -264.5v-358q0 -43 3 -67.5t9.5 -43t24 -27t38.5 -13t61 -7.5v-53h-433v53 q91 9 113.5 34.5t22.5 123.5v340q0 252 -201 252q-122 0 -213 -105v-487q0 -99 20.5 -124t110.5 -34v-53h-434z" />
<glyph unicode="i" horiz-adv-x="548" d="M66 0v53q36 3 56 6.5t38 11t26 16.5t14 28.5t7.5 41.5t1.5 60v422q0 96 -18.5 118.5t-110.5 37.5v49q154 24 291 80v-707q0 -104 23 -129.5t122 -34.5v-53h-450zM174 1202q0 45 31.5 76t73.5 31q43 0 72.5 -30.5t29.5 -76.5q0 -42 -30.5 -73t-74.5 -31q-40 0 -71 31.5 t-31 72.5z" />
<glyph unicode="j" horiz-adv-x="524" d="M-51 -436q0 39 43 47q109 27 147 78q37 46 51 147q19 139 19 395v400q0 38 -1 59.5t-7 41t-13.5 28t-25.5 17t-37 12t-55 8.5v47q167 25 299 80v-695q0 -108 -9.5 -180.5t-37.5 -150.5q-46 -135 -121.5 -246.5t-126.5 -155.5q-25 -22 -51 -22q-24 0 -49 27.5t-25 62.5z M174 1202q0 45 31 76t74 31q42 0 71 -31t29 -76q0 -42 -30.5 -73t-72.5 -31q-41 0 -71.5 31.5t-30.5 72.5z" />
<glyph unicode="k" horiz-adv-x="1015" d="M29 0v53q44 4 68.5 9.5t42.5 14t25 27.5t10 42.5t3 66.5v969q0 55 -2.5 80.5t-18.5 43.5t-39 23t-75 10v47q117 12 295 72v-964q76 15 129 71q60 60 145 180q24 35 24 54q0 7 -3 11q-11 18 -82 26v53l418 18v-51q-106 -19 -155 -41.5t-109 -79.5q-70 -70 -177 -194 q30 -44 146.5 -181.5t171.5 -193.5q56 -59 101.5 -84.5t103.5 -28.5v-53l-281 -4q-42 47 -96.5 112t-130.5 159t-109 134q-35 45 -63 45q-12 0 -33 -6v-227q0 -100 24.5 -125.5t124.5 -34.5v-53h-458z" />
<glyph unicode="l" horiz-adv-x="518" d="M31 0v53q53 5 78 10.5t43 23.5t22 45t4 81v969q0 38 -1 59.5t-7.5 40t-13 26.5t-26 15t-38 9t-55.5 5v49q148 17 303 72v-1245q0 -71 10.5 -100.5t38.5 -41.5t98 -18v-53h-456z" />
<glyph unicode="m" horiz-adv-x="1677" d="M55 0v53q37 3 58.5 6.5t41 10.5t28.5 16.5t16 27.5t8.5 40t1.5 57v424q0 99 -18 123t-107 37v47q165 29 285 84v-166q14 9 64 45.5t85 58.5q90 56 168 56q74 0 135.5 -44.5t91.5 -123.5q69 53 170 114q80 54 154 54q121 0 190.5 -82.5t69.5 -231.5v-395q0 -54 3.5 -81 t20 -44.5t38.5 -22.5t71 -10v-53h-436v53q35 3 53 6t37 10t27 17t15.5 28.5t9 42.5t1.5 62v342q0 238 -180 238q-103 0 -229 -107q6 -37 6 -86v-399q0 -95 22 -120t109 -34v-53h-438v53q43 4 64.5 8.5t40.5 13t26 26.5t10.5 42.5t3.5 67.5v352q0 236 -178 236 q-95 0 -223 -107v-481q0 -98 19.5 -123.5t96.5 -34.5v-53h-432z" />
<glyph unicode="n" horiz-adv-x="1120" d="M59 0v53q39 4 60 7t40.5 11t27 16.5t14 27.5t7.5 40t1 58v424q0 53 -2.5 77.5t-18 42.5t-35.5 23.5t-67 14.5v47q169 31 285 84v-164q28 21 137 96q96 62 170 62q123 0 193.5 -82t70.5 -230v-395q0 -57 2.5 -83t18 -44t37 -23t71.5 -10v-53h-426v53q91 9 113 36.5 t22 133.5v342q0 234 -186 234q-102 0 -223 -105v-481q0 -38 1 -59.5t7 -40.5t13 -27.5t24.5 -16t35.5 -10.5t52 -6v-53h-445z" />
<glyph unicode="o" horiz-adv-x="1044" d="M76 428q0 121 43.5 218.5t111.5 155t144 88t149 30.5q189 0 317 -132.5t128 -324.5q0 -96 -27 -177.5t-71.5 -137.5t-102.5 -96t-120 -58.5t-124 -18.5q-102 0 -188 38.5t-142 102.5t-87 145t-31 167zM266 494q0 -196 78 -323.5t203 -127.5q104 0 167.5 88.5t63.5 286.5 q0 122 -30.5 219t-94 156t-149.5 59q-100 0 -169 -96t-69 -262z" />
<glyph unicode="p" horiz-adv-x="1073" d="M35 -436q100 9 124.5 34.5t24.5 125.5v925q0 28 -0.5 44.5t-3 33.5t-5 25.5t-11.5 17.5t-16.5 12.5t-24.5 8t-31.5 6.5t-42.5 6v49q134 22 297 88v-162l189 111q57 31 100 31q83 0 152 -32t114.5 -86t70.5 -124t25 -146q0 -112 -42 -209.5t-113.5 -167t-162 -115.5 t-192.5 -65q-75 3 -141 37v-268q0 -43 1.5 -67t9 -45.5t16 -31t31.5 -18t47 -11.5t69 -7v-56h-485v56zM346 156q34 -35 87.5 -57.5t105.5 -22.5q129 0 207.5 103t78.5 276q0 159 -78.5 250.5t-195.5 91.5q-46 0 -102 -25.5t-103 -60.5v-555z" />
<glyph unicode="q" horiz-adv-x="1046" d="M80 406q0 142 78 262t204 186q123 66 261 66h4q95 -8 143 -27q34 -10 55 -10t70 22l8 -6q-6 -129 -6 -219v-952q0 -39 1 -62t8.5 -42.5t15.5 -28t29.5 -16.5t42 -11t61.5 -8v-56h-492v56q45 4 69 7t46.5 11.5t32 17.5t16.5 29t8.5 42.5t1.5 62.5v331l-217 -86 q-107 0 -194 39t-139 102.5t-79.5 138t-27.5 151.5zM262 473q0 -89 29 -163.5t76 -121.5t104 -72.5t115 -25.5q76 0 151 33v629q-34 39 -91.5 62.5t-108.5 23.5q-112 0 -193.5 -96.5t-81.5 -268.5z" />
<glyph unicode="r" horiz-adv-x="759" d="M68 0v53q96 9 118.5 34t22.5 126v424q0 44 -2.5 67.5t-8 42t-22 26.5t-36 13.5t-58.5 10.5v45q154 25 289 84v-224h4q130 218 248 218q50 0 84 -32t34 -71q0 -31 -18 -59t-47 -41q-36 -15 -55 4q-40 43 -86 43q-41 0 -86 -46.5t-78 -129.5v-375q0 -38 1 -58.5t7.5 -40 t15.5 -28t30.5 -16.5t46 -11t67.5 -6v-53h-471z" />
<glyph unicode="s" horiz-adv-x="751" d="M84 287l53 10q30 -108 97 -181t155 -73q59 0 102.5 40t43.5 103q0 64 -40 106.5t-122 80.5q-46 21 -75 36t-67.5 42t-60 53.5t-37.5 65.5t-16 85q0 110 86.5 187.5t224.5 77.5q88 0 182 -35q11 -33 25.5 -105t19.5 -114l-53 -13q-30 94 -84 148.5t-127 54.5 q-58 0 -95.5 -40.5t-37.5 -100.5q0 -63 45.5 -103t128.5 -75q127 -52 192.5 -116t65.5 -163q0 -89 -51 -155t-126.5 -97t-160.5 -31q-72 0 -137.5 22t-97.5 48q-11 22 -22 104.5t-11 137.5z" />
<glyph unicode="t" horiz-adv-x="624" d="M35 836l55 59h94v149l133 136l29 -4v-281h232q14 -15 9.5 -42.5t-22.5 -37.5h-219v-526q0 -59 11 -100.5t30 -61t37.5 -27.5t40.5 -8q55 0 127 35l18 -53l-139 -72q-53 -27 -86 -27q-98 0 -149.5 61.5t-51.5 182.5v596h-141z" />
<glyph unicode="u" horiz-adv-x="1087" d="M59 825v47q139 9 293 37q-6 -63 -6 -299v-274q0 -126 50.5 -179t129.5 -53q120 0 222 99v477q0 32 -1 50t-8 35t-15 24.5t-29.5 15t-43 11t-63.5 9.5v47q199 11 321 37v-684q0 -75 17.5 -96.5t77.5 -24.5l57 -4v-51q-113 -17 -301 -74l-12 13v145q-97 -72 -152 -106 q-88 -52 -158 -52q-112 0 -183 75t-71 231v401q0 84 -18.5 105t-106.5 38z" />
<glyph unicode="v" horiz-adv-x="948" d="M-4 844v51h420v-51q-81 -10 -95 -32q-5 -7 -5 -19q0 -24 18 -68q110 -296 194 -506q86 202 183 490q14 42 14 68q0 20 -8 31q-18 26 -105 36v51h365v-51q-79 -10 -108.5 -36.5t-71.5 -119.5q-159 -360 -289 -711h-55q-79 211 -283 717q-35 90 -63 114t-111 36z" />
<glyph unicode="w" horiz-adv-x="1402" d="M18 844v51h424v-51q-92 -16 -108 -36q-7 -9 -7 -25q0 -24 13 -64q58 -196 149 -477h5q48 126 237 643h53q88 -247 246 -649h4q107 335 140 471q10 41 10 66t-10 35q-20 22 -119 36v51h370v-51q-74 -12 -102 -39t-61 -115q-55 -146 -246 -713h-58q-36 98 -77.5 204 t-92.5 233t-79 200q-25 -66 -75 -193.5t-90.5 -235t-76.5 -208.5h-59q-111 365 -236 732q-28 79 -54 101.5t-100 33.5z" />
<glyph unicode="x" horiz-adv-x="966" d="M8 0v53q66 8 100.5 21t61 36t70.5 78q75 95 172 246l-179 279q-46 75 -80.5 97.5t-119.5 33.5v51h409v-51q-66 -9 -76 -27q-3 -5 -2 -11q0 -18 21 -50l121 -189q69 100 119 191q18 34 18 52q0 8 -4 12q-12 14 -80 22v51h373v-51q-95 -11 -132.5 -29t-92.5 -82 q-45 -56 -160 -225l201 -303q58 -89 95 -114.5t130 -37.5v-53h-441v53q67 8 81.5 24.5t-11.5 57.5l-151 240q-87 -131 -132 -217q-22 -37 -22 -58q-1 -8 3 -14q12 -20 91 -33v-53h-383z" />
<glyph unicode="y" horiz-adv-x="940" d="M2 844v51h416v-51q-70 -12 -84 -34q-6 -9 -6 -24q0 -21 12 -55l186 -514q102 248 189 510q9 29 9 50t-10 33q-20 22 -106 34v51h371v-51q-81 -12 -110.5 -36.5t-71.5 -113.5q-22 -48 -53 -122.5t-89.5 -218.5t-113.5 -275q-105 -251 -147.5 -362t-63.5 -193 q-13 -49 -66 -49q-43 0 -80 30.5t-37 67.5q0 23 12.5 39t41.5 35q47 30 81 72t70 110q49 91 64 141q7 21 7 42q0 24 -9 50q-142 404 -236 627q-33 88 -63.5 116t-112.5 40z" />
<glyph unicode="z" horiz-adv-x="860" d="M63 31q233 344 510 796h-182q-45 0 -75.5 -5t-52.5 -13.5t-40 -28t-31 -40.5t-32 -60l-29 -55l-51 18q42 142 70 297h43q9 -25 32.5 -35t79.5 -10h471l12 -29q-222 -346 -499 -798h203q59 0 97.5 7.5t69.5 29.5t52.5 49t54.5 79l27 50l53 -25q-17 -43 -48.5 -132 t-45.5 -126h-676z" />
<glyph unicode="{" horiz-adv-x="710" d="M133 522v62q51 3 87 16.5t54.5 29.5t28.5 41.5t12 44t2 46.5q0 68 -7 211.5t-7 208.5q0 69 20 120.5t48.5 79.5t71.5 44.5t78.5 21t78.5 4.5v-57q-55 -7 -91 -24.5t-53 -45.5t-22.5 -55.5t-5.5 -67.5q0 -65 13.5 -202t13.5 -205q0 -91 -41 -154t-129 -84v-8 q86 -19 128 -83.5t42 -154.5q0 -71 -13.5 -204.5t-13.5 -196.5q0 -40 5.5 -68t22.5 -57t52.5 -47.5t91.5 -26.5v-57q-43 0 -78.5 4.5t-78.5 20.5t-71.5 43t-48.5 77.5t-20 118.5q0 74 7 219t7 207q0 28 -2 46.5t-12 44t-28.5 41.5t-54.5 29.5t-87 16.5z" />
<glyph unicode="|" horiz-adv-x="538" d="M203 -512v2048h131v-2048h-131z" />
<glyph unicode="}" horiz-adv-x="710" d="M111 -289q102 16 138 65t36 128q0 64 -14.5 201.5t-14.5 203.5q0 197 172 240v8q-88 21 -130 85t-42 153q0 67 14.5 205.5t14.5 203.5q0 81 -36 129t-138 62v57q45 0 80.5 -4.5t78.5 -20.5t72 -43t48.5 -77.5t19.5 -118.5q0 -76 -8.5 -218t-8.5 -200q0 -30 2 -49.5 t12 -46.5t29 -44t55.5 -31t88.5 -17v-60q-52 -3 -88.5 -17t-55.5 -30.5t-29 -43t-12 -45.5t-2 -48q0 -59 8.5 -201.5t8.5 -220.5q0 -65 -20 -114t-49.5 -76.5t-71.5 -44.5t-79 -22t-79 -5v57z" />
<glyph unicode="~" horiz-adv-x="1187" d="M113 399q88 226 266 226q58 0 109 -18.5t130 -61.5q70 -41 117 -60.5t92 -19.5q62 0 102.5 39.5t71.5 126.5l74 -43q-33 -109 -99 -167.5t-161 -58.5q-64 0 -125 24.5t-135 68.5q-57 35 -98 51t-86 16q-64 0 -108.5 -42.5t-78.5 -133.5z" />
<glyph unicode="&#xa1;" horiz-adv-x="565" d="M164 795q0 54 33 87t84 33t83.5 -33t32.5 -87q0 -52 -32.5 -85.5t-83.5 -33.5t-84 33.5t-33 85.5zM172 -408q0 16 14 160q28 246 62 735q8 11 36.5 11.5t34.5 -11.5q6 -82 16.5 -238.5t20 -274t21.5 -222.5q16 -131 16 -160q0 -33 -26.5 -47t-83.5 -14q-58 0 -84.5 14 t-26.5 47z" />
<glyph unicode="&#xa2;" d="M104 610q0 114 52 211.5t139 165.5q100 72 217 100v173h72v-164q14 2 34 2q131 0 209 -54q29 -20 29 -51q0 -30 -24.5 -59t-49.5 -29q-11 0 -30 19q-75 75 -168 86v-682q79 -1 142 28t128 93l35 -48q-61 -81 -145 -134.5t-160 -65.5v-201h-72v197q-89 2 -166.5 37.5 t-129.5 92.5t-82 130.5t-30 152.5zM264 694q0 -68 16 -126t41 -96.5t58.5 -67.5t66 -45t66.5 -23v676q-42 -1 -84 -19.5t-79.5 -55t-61 -100t-23.5 -143.5z" />
<glyph unicode="&#xa3;" d="M49.5 17q-11.5 27 11.5 71q8 15 22.5 33t41 47.5t33.5 38.5q86 93 86 276q0 28 -6 121h-181v78h170q-10 128 -10 168q0 221 170 358q46 38 108 65t105 27q63 0 120.5 -27.5t78.5 -55.5q20 -32 6 -64q-11 -26 -39 -47q-27 -21 -55 4q-32 27 -54.5 42.5t-60.5 29.5t-78 14 q-145 0 -145 -197q0 -77 39 -317h356v-78h-348q2 -2 1 -24l-1 -23q0 -189 -176 -354q84 0 213 -56q166 -77 245 -77q56 0 87.5 25.5t31.5 68.5q0 28 -14 65q-12 20 4 45q35 54 74 54q21 0 35 -26.5t14 -57.5q0 -65 -48 -130.5t-112 -105.5q-90 -63 -184 -63 q-55 0 -120.5 28.5t-154.5 79.5q-85 49 -120 49q-49 0 -84 -88q-9 -24 -25 -24q-25 0 -36.5 27z" />
<glyph unicode="&#xa4;" d="M57 276l142 136q-88 107 -88 254q0 145 90 249l-144 140l82 80l131 -154q96 80 219 80q52 0 110.5 -20t105.5 -58l129 152l84 -80l-142 -140q41 -47 64.5 -113.5t23.5 -135.5q0 -145 -90 -252l144 -138l-84 -81l-132 153q-46 -38 -104 -59t-111 -21q-55 0 -114.5 20 t-104.5 58l-129 -151zM236 666q0 -132 72 -214.5t181 -82.5t180.5 82.5t71.5 214.5q0 130 -72.5 212.5t-179.5 82.5q-110 0 -181.5 -82t-71.5 -213z" />
<glyph unicode="&#xa5;" d="M14 1223v53h416v-53l-53 -11q-42 -8 -52 -20.5t3 -44.5q17 -45 49 -119t73.5 -167t61.5 -140q131 270 180 399q20 42 11.5 62t-56.5 30l-57 11v53h364v-53q-79 -10 -110.5 -35.5t-77.5 -110.5q-73 -130 -201 -399h238v-74h-252v-143h252v-76h-252v-166q0 -57 3.5 -83 t23 -46t51.5 -25.5t98 -9.5v-55h-512v55q45 3 71 6t47.5 11t31 16.5t16 29.5t7.5 41.5t1 59.5v166h-244v76h244v143h-244v74h224q-23 55 -50 114t-68 145.5t-67 141.5q-42 89 -70 112t-100 32z" />
<glyph unicode="&#xa6;" horiz-adv-x="538" d="M203 -358v716h131v-716h-131zM203 666v716h131v-716h-131z" />
<glyph unicode="&#xa7;" horiz-adv-x="976" d="M111 758q3 180 161 352q81 88 149 134.5t161 68.5q37 0 75.5 -14t59.5 -33q24 -21 24 -47q0 -21 -11.5 -40t-24.5 -28q-22 -16 -41 -2q-21 19 -63 37t-91 18q-63 0 -97 -34t-34 -74q0 -74 76 -140q38 -34 121.5 -106t103.5 -90q192 -162 192 -346q-3 -220 -200 -439 q-72 -75 -138.5 -119.5t-146.5 -68.5q-28 0 -70.5 12t-70.5 33q-39 33 -39 62q0 34 41 65q23 14 45 8q79 -59 160 -59q56 0 99 32.5t44 92.5q2 43 -29 92t-108 121q-117 113 -201 200q-147 140 -147 312zM213 846q0 -85 42 -162.5t140 -169.5q204 -185 250 -260 q18 -29 30 -75.5t9 -84.5l4 -2q78 116 78 234q0 157 -164 303q-175 157 -227 209q-40 40 -63 93.5t-17 108.5h-8q-71 -93 -74 -194z" />
<glyph unicode="&#xa8;" horiz-adv-x="819" d="M139 1200q0 43 30 73t71 30q40 0 67 -30t27 -73q0 -39 -28 -68.5t-68 -29.5t-69.5 30t-29.5 68zM485 1200q0 43 29 73t70 30q40 0 68 -30t28 -73q0 -39 -28.5 -68.5t-69.5 -29.5q-39 0 -68 29.5t-29 68.5z" />
<glyph unicode="&#xa9;" horiz-adv-x="1437" d="M104 659q0 128 47 243t128 198.5t195.5 132.5t244.5 49q172 0 312.5 -83t220 -226t79.5 -314q0 -170 -79 -312t-219.5 -225t-313.5 -83t-314.5 83t-221 225t-79.5 312zM201 662q0 -236 147.5 -393.5t370.5 -157.5q148 0 267 72.5t185 198.5t66 280q0 155 -66 280 t-185 196.5t-267 71.5q-147 0 -266 -71.5t-185.5 -196.5t-66.5 -280zM375 653q0 111 55.5 195t145 126t196.5 42q120 0 213 -35q16 -109 23 -186l-45 -9q-49 172 -205 172q-108 0 -171 -80.5t-63 -209.5q0 -133 68.5 -218t171.5 -85q81 0 133 44t88 130l45 -11 q-35 -142 -53 -184q-114 -39 -213 -39q-95 0 -171.5 30t-122.5 80.5t-70.5 111.5t-24.5 126z" />
<glyph unicode="&#xaa;" horiz-adv-x="624" d="M68 707q0 87 98 124q13 5 53.5 19.5t64 23.5t52.5 22.5t45 25.5v20q0 50 -27.5 81.5t-74.5 31.5q-66 0 -97 -109q-11 -31 -43 -31q-23 0 -44 18t-21 40q0 32 43 57q32 24 89 51t109 35q88 0 135.5 -45.5t47.5 -134.5v-221q0 -70 43 -70q22 0 49 12l14 -39l-129 -67 q-69 5 -92 80q-41 -27 -59 -38.5t-49.5 -26.5t-49.5 -15q-66 0 -111.5 48t-45.5 108zM195 729q0 -41 27 -65.5t63 -24.5q50 0 96 41v186q-35 -18 -127 -55q-33 -18 -46 -35.5t-13 -46.5z" />
<glyph unicode="&#xab;" horiz-adv-x="909" d="M100 453q142 142 326 376l45 -30l-190 -346l190 -342l-45 -33q-220 279 -326 375zM440 453q148 153 324 376l47 -30l-190 -346l190 -342l-47 -33q-217 276 -324 375z" />
<glyph unicode="&#xac;" horiz-adv-x="1187" d="M106 653v101h977v-555h-118v454h-859z" />
<glyph unicode="&#xad;" horiz-adv-x="729" d="M117 406l28 112h469l-30 -112h-467z" />
<glyph unicode="&#xae;" horiz-adv-x="657" d="M66 1085q0 109 76.5 187t187.5 78q113 0 189.5 -78t76.5 -187q0 -106 -77 -185t-189 -79q-114 0 -189 75.5t-75 188.5zM125 1085q0 -92 58.5 -153.5t146.5 -61.5q89 0 148 61.5t59 153.5t-59 155t-148 63q-90 0 -147.5 -63t-57.5 -155zM203 946v33q27 2 33 7t6 32v139 q0 27 -5.5 32t-31.5 7v31h139q98 0 98 -72q0 -50 -55 -70q23 -46 68 -96q14 -14 26 -20l-8 -25q-65 0 -98 43q-8 11 -15 24t-13.5 25.5t-8.5 16.5q-9 14 -29 14h-8v-49q0 -27 6 -32t33 -7v-33h-137zM301 1098h18q24 0 35 8q23 12 23 43q0 26 -16 36.5t-33 10.5 q-27 0 -27 -25v-73z" />
<glyph unicode="&#xaf;" horiz-adv-x="819" d="M186 1122v113h449v-113h-449z" />
<glyph unicode="&#xb0;" horiz-adv-x="702" d="M66 1077q0 124 84 203.5t202 79.5q117 0 202 -79.5t85 -203.5q0 -127 -84.5 -203.5t-202.5 -76.5q-119 0 -202.5 76.5t-83.5 203.5zM188 1079q0 -86 46 -139t118 -53q73 0 118.5 52.5t45.5 137.5q0 86 -45.5 139.5t-118.5 53.5q-72 0 -118 -52.5t-46 -138.5z" />
<glyph unicode="&#xb1;" horiz-adv-x="1187" d="M106 0v102h977v-102h-977zM106 637v100h431v391h118v-391h428v-100h-428v-418h-118v418h-431z" />
<glyph unicode="&#xb2;" horiz-adv-x="698" d="M82 823v45q144 115 204 177q146 147 146 260q0 73 -38.5 111t-98.5 38q-90 0 -174 -113l-35 37l66 88q35 44 87 68.5t111 24.5q92 0 158.5 -59.5t66.5 -160.5q0 -71 -48.5 -138.5t-168.5 -172.5l-106 -94v-6h186q62 0 88 16t56 76l45 -16q-27 -89 -47 -181h-498z" />
<glyph unicode="&#xb3;" horiz-adv-x="698" d="M94 909q9 26 37 47q20 16 41 -2q85 -67 156 -67q60 0 96.5 37.5t36.5 115.5q0 67 -46.5 102.5t-111.5 35.5q-37 0 -84 -15l-14 51q101 32 153 69t52 91q0 40 -29 67t-80 27q-43 0 -85 -31.5t-69 -72.5l-32 35l59 84q28 30 77.5 51.5t100.5 21.5q87 0 141 -44.5t54 -110.5 q0 -56 -39 -84q-38 -34 -86 -60v-4q82 -14 130 -59t48 -111t-41 -121.5t-99.5 -87.5t-113 -49.5t-90.5 -17.5q-79 0 -139 43q-33 26 -23 59z" />
<glyph unicode="&#xb4;" horiz-adv-x="819" d="M342 1036q56 123 137 326q16 7 82 14.5t84 3.5l6 -18l-256 -352z" />
<glyph unicode="&#xb5;" horiz-adv-x="1048" d="M139 883l166 39q4 -49 4 -217v-351q0 -70 17.5 -121.5t46 -78.5t60 -39.5t65.5 -12.5q59 0 114 33.5t88 75.5v674l164 37v-689q0 -143 84 -143q34 0 72 21l20 -54q-27 -33 -75.5 -57.5t-98.5 -24.5q-64 0 -107 44.5t-52 115.5h-5q-139 -160 -272 -160q-53 0 -97.5 24 t-70.5 62h-8v-32q-1 -116 25 -290.5t51 -240.5l-27 -24q-33 3 -81 28.5t-72 51.5q-3 9 -4.5 45t-1.5 96v117t0.5 139.5t0.5 132.5v602q0 126 -6 197z" />
<glyph unicode="&#xb6;" horiz-adv-x="1017" d="M102 659q0 98 37.5 184t98.5 144q63 59 147 94t156 35h405l8 -24l-61 -56l-180 -20v-971q0 -125 -33 -214t-105 -165q-41 -42 -99.5 -72t-78.5 -30q-88 0 -135 47q-33 29 -20 61q8 28 41 56q18 15 39 0q67 -45 129 -45q32 0 58 13t49.5 46t36.5 99.5t13 162.5v307 l-137 -59q-12 -6 -35 -6q-35 0 -78.5 17.5t-88.5 54t-82.5 84.5t-61 115.5t-23.5 141.5z" />
<glyph unicode="&#xb7;" horiz-adv-x="462" d="M117 477q0 50 32.5 83.5t81.5 33.5q51 0 84 -33.5t33 -83.5q0 -55 -32.5 -88t-84.5 -33q-50 0 -82 33t-32 88z" />
<glyph unicode="&#xb8;" horiz-adv-x="819" d="M291 -434q123 53 123 123q0 33 -47 80q-40 37 -45.5 62t22.5 65l78 104h82l-45 -55q-20 -27 -17.5 -43t27.5 -41q80 -80 80 -142q0 -64 -63 -118.5t-171 -87.5z" />
<glyph unicode="&#xb9;" horiz-adv-x="698" d="M156 1450v45q143 19 270 61v-565q0 -73 23.5 -92.5t109.5 -28.5v-47h-401v47q86 6 110.5 27t24.5 94v365q0 58 -12.5 72.5t-65.5 17.5z" />
<glyph unicode="&#xba;" horiz-adv-x="684" d="M55 825q0 71 28 129t71.5 92t92 52t95.5 18q123 0 204 -80t81 -194q-1 -89 -45 -157.5t-107 -101t-131 -32.5q-131 0 -211 83t-78 191zM197 858q0 -111 44.5 -180.5t110.5 -69.5q59 0 95.5 49.5t37.5 153.5q0 110 -42.5 180t-114.5 70q-51 0 -90.5 -54t-40.5 -149z" />
<glyph unicode="&#xbb;" horiz-adv-x="911" d="M100 109l193 346l-193 344l47 30q178 -224 324 -374q-153 -158 -324 -375zM440 109l191 346l-191 344l45 30q195 -245 324 -374q-136 -136 -324 -375z" />
<glyph unicode="&#xbc;" horiz-adv-x="1560" d="M162 1194v47q124 14 270 62v-568q0 -73 23.5 -92.5t109.5 -28.5v-47h-401v47q86 6 110.5 27t24.5 94v365q0 58 -12.5 72.5t-65.5 17.5zM340 -6l827 1347l68 -47l-832 -1349zM829 203v47q221 295 377 485h80v-456h121v-76h-121v-60q0 -59 20.5 -75t92.5 -21v-47h-371v47 q87 6 110 21.5t23 74.5v60h-332zM934 279h227v305h-6q-105 -136 -221 -305z" />
<glyph unicode="&#xbd;" horiz-adv-x="1560" d="M145 1194v47q127 14 273 62v-568q0 -73 23.5 -92.5t109.5 -28.5v-47h-404v47q87 6 111.5 27t24.5 94v365q0 58 -12 72.5t-64 17.5zM311 -6l828 1347l67 -47l-831 -1349zM895 0v45q138 111 189 160q163 157 163 276q0 73 -38.5 111.5t-98.5 38.5q-90 0 -174 -113l-37 37 l68 88q73 92 198 92q92 0 158 -59t66 -160q0 -71 -47.5 -137.5t-167.5 -171.5l-107 -96v-5h186q60 0 87 16t57 75l45 -15q-36 -122 -49 -182h-498z" />
<glyph unicode="&#xbe;" horiz-adv-x="1560" d="M150 653q9 27 36 47q20 16 41 -2q92 -67 156 -67q60 0 96.5 37.5t36.5 115.5q0 67 -46.5 102.5t-111.5 35.5q-37 0 -84 -15l-14 51q101 32 153 69t52 91q0 40 -29 67t-80 27q-43 0 -84 -31t-69 -71l-33 33l59 84q29 30 78.5 53t100.5 23q87 0 140.5 -46t53.5 -112 q0 -56 -39 -84q-38 -34 -86 -60v-4q82 -14 130 -59t48 -111t-41 -121.5t-99.5 -87.5t-113 -49.5t-90.5 -17.5q-79 0 -139 43q-32 25 -22 59zM346 -6l828 1347l67 -47l-831 -1349zM817 203v47q221 295 377 485h80v-456h121v-76h-121v-60q0 -60 20 -75.5t92 -20.5v-47h-370v47 q87 6 110 21.5t23 74.5v60h-332zM922 279h227v305h-6q-105 -136 -221 -305z" />
<glyph unicode="&#xbf;" horiz-adv-x="776" d="M94 -143q0 54 23 96.5t76 85.5q13 11 48 37t62 47.5t56.5 50t46 58t16.5 57.5q0 48 -22.5 83t-73.5 79l36 47q73 -27 150.5 -105t77.5 -162q0 -53 -38.5 -104.5t-133.5 -124.5q-5 -4 -26.5 -19.5t-30 -22.5t-28.5 -23t-30.5 -25.5t-26.5 -25t-24.5 -28t-17.5 -27.5 t-13 -29.5t-4 -28.5q0 -52 32 -80.5t89 -28.5q44 0 87 17t69 37.5t48 37.5t29 17q25 0 54.5 -27.5t29.5 -62.5q0 -34 -43 -74q-43 -37 -99.5 -57.5t-90.5 -20.5q-127 0 -227.5 100t-100.5 226zM279 801q0 51 31 82.5t81 31.5q47 0 79 -32t32 -82t-32.5 -83.5t-78.5 -33.5 q-49 0 -80.5 33t-31.5 84z" />
<glyph unicode="&#xc0;" horiz-adv-x="1415" d="M41 0v57q55 8 81 15t54 30t47 59.5t47 106.5l424 1075l64 19q28 -78 173 -483.5t222 -614.5q26 -70 43.5 -105.5t44 -59t55 -30.5t82.5 -12v-57h-501v57q97 12 118.5 32.5t1.5 80.5q-21 62 -112 315h-436q-65 -181 -91 -264q-12 -34 -17.5 -56t-3.5 -40.5t10 -29 t27 -18.5t44.5 -12t66.5 -8v-57h-444zM420 1546q7 24 39 67.5t51 49.5q229 -147 324 -211l-29 -51l-381 131zM479 573h377l-180 523h-4q-98 -260 -193 -523z" />
<glyph unicode="&#xc1;" horiz-adv-x="1415" d="M41 0v57q55 8 81 15t54 30t47 59.5t47 106.5l424 1075l64 19q28 -78 173 -483.5t222 -614.5q26 -70 43.5 -105.5t44 -59t55 -30.5t82.5 -12v-57h-501v57q97 12 118.5 32.5t1.5 80.5q-21 62 -112 315h-436q-65 -181 -91 -264q-12 -34 -17.5 -56t-3.5 -40.5t10 -29 t27 -18.5t44.5 -12t66.5 -8v-57h-444zM479 573h377l-180 523h-4q-98 -260 -193 -523zM623 1452q66 42 187.5 121.5t133.5 87.5q18 -3 50.5 -46.5t37.5 -66.5l-4 -16l-379 -131z" />
<glyph unicode="&#xc2;" horiz-adv-x="1415" d="M41 0v57q55 8 81 15t54 30t47 59.5t47 106.5l424 1075l64 19q28 -78 173 -483.5t222 -614.5q26 -70 43.5 -105.5t44 -59t55 -30.5t82.5 -12v-57h-501v57q97 12 118.5 32.5t1.5 80.5q-21 62 -112 315h-436q-65 -181 -91 -264q-12 -34 -17.5 -56t-3.5 -40.5t10 -29 t27 -18.5t44.5 -12t66.5 -8v-57h-444zM451 1452q188 145 258 219h45q76 -80 256 -219l-33 -51q-103 44 -248 127q-162 -91 -246 -127zM479 573h377l-180 523h-4q-98 -260 -193 -523z" />
<glyph unicode="&#xc3;" horiz-adv-x="1415" d="M41 0v57q55 8 81 15t54 30t47 59.5t47 106.5l424 1075l64 19q28 -78 173 -483.5t222 -614.5q26 -70 43.5 -105.5t44 -59t55 -30.5t82.5 -12v-57h-501v57q97 12 118.5 32.5t1.5 80.5q-21 62 -112 315h-436q-65 -181 -91 -264q-12 -34 -17.5 -56t-3.5 -40.5t10 -29 t27 -18.5t44.5 -12t66.5 -8v-57h-444zM459 1446q34 89 77 128.5t87 39.5q45 0 127 -39q71 -33 112 -33q28 0 49.5 21.5t42.5 66.5l52 -28q-30 -94 -75 -134.5t-93 -40.5q-47 0 -144 46q-3 2 -11.5 6t-11.5 5.5t-10 4.5t-10.5 4t-10 3t-11.5 3t-11.5 1.5t-13.5 0.5 q-50 0 -96 -90zM479 573h377l-180 523h-4q-98 -260 -193 -523z" />
<glyph unicode="&#xc4;" horiz-adv-x="1415" d="M41 0v57q55 8 81 15t54 30t47 59.5t47 106.5l424 1075l64 19q28 -78 173 -483.5t222 -614.5q26 -70 43.5 -105.5t44 -59t55 -30.5t82.5 -12v-57h-501v57q97 12 118.5 32.5t1.5 80.5q-21 62 -112 315h-436q-65 -181 -91 -264q-12 -34 -17.5 -56t-3.5 -40.5t10 -29 t27 -18.5t44.5 -12t66.5 -8v-57h-444zM430 1524q0 42 29 71t69 29q41 0 69 -28.5t28 -71.5q0 -40 -28 -69.5t-69 -29.5q-40 0 -69 29.5t-29 69.5zM479 573h377l-180 523h-4q-98 -260 -193 -523zM821 1524q0 42 29 72t68 30q41 0 69.5 -29.5t28.5 -72.5q0 -40 -28.5 -69.5 t-69.5 -29.5q-38 0 -67.5 29.5t-29.5 69.5z" />
<glyph unicode="&#xc5;" horiz-adv-x="1415" d="M41 0v57q55 8 81 15t54 30t47 59.5t47 106.5l424 1075l64 19q28 -78 173 -483.5t222 -614.5q26 -70 43.5 -105.5t44 -59t55 -30.5t82.5 -12v-57h-501v57q97 12 118.5 32.5t1.5 80.5q-21 62 -112 315h-436q-65 -181 -91 -264q-12 -34 -17.5 -56t-3.5 -40.5t10 -29 t27 -18.5t44.5 -12t66.5 -8v-57h-444zM479 573h377l-180 523h-4q-98 -260 -193 -523zM545 1581q0 76 54 123t126 47t127 -47t55 -123q0 -78 -55 -127t-127 -49q-71 0 -125.5 49t-54.5 127zM635 1581q0 -48 25.5 -80.5t64.5 -32.5q40 0 65 32.5t25 80.5q0 47 -24.5 77 t-65.5 30q-39 0 -64.5 -30.5t-25.5 -76.5z" />
<glyph unicode="&#xc6;" horiz-adv-x="1779" d="M-23 0v55q101 14 143 43t101 131q173 307 490 922q35 63 24 84t-88 31l-84 10v55h1051q0 -91 20 -291l-61 -8q-30 122 -66 168q-28 34 -71 47t-144 13h-170q-45 0 -55 -10.5t-10 -55.5v-508h184q49 0 79 1.5t54.5 9t37 16t23.5 29.5t16 41.5t13 60.5h62v-400h-62 q-8 42 -13.5 63.5t-17 43t-23.5 30t-37 15.5t-54 8.5t-78 1.5l-184 2v-340q0 -79 10.5 -116t38.5 -56q28 -16 75 -20t134 -4q112 0 170 14.5t92 54.5q50 59 100 197l58 -14q-41 -216 -72 -324h-969v57q71 5 105.5 12.5t56.5 33t26.5 61.5t4.5 110v334h-363 q-134 -261 -194 -399q-39 -79 -19 -109t135 -45v-55h-469zM561 688h326v561q-26 0 -58 -41q-67 -123 -268 -520z" />
<glyph unicode="&#xc7;" horiz-adv-x="1353" d="M94 643q0 210 99 374t276 254.5t401 90.5q60 0 124.5 -7t100 -14t86 -19t54.5 -13q33 -241 41 -318l-62 -10q-47 166 -138.5 235.5t-262.5 69.5q-152 0 -268.5 -79t-178 -214.5t-61.5 -304.5q0 -184 63 -329t183 -228.5t278 -83.5q105 0 183 37.5t132.5 103.5t110.5 177 l60 -23q-60 -210 -111 -319q-8 -2 -56.5 -11.5t-86.5 -16.5t-95 -14t-102 -8l-22 -28q-19 -27 -16.5 -43t28.5 -43q42 -43 60 -74.5t18 -65.5q0 -61 -64 -117.5t-170 -90.5l-26 57q122 54 125 123q0 15 -8.5 31t-15 23t-23.5 24q-38 38 -43.5 63.5t20.5 63.5l55 75 q-139 4 -255.5 45.5t-195 107.5t-133 152.5t-79.5 178.5t-25 188z" />
<glyph unicode="&#xc8;" horiz-adv-x="1163" d="M59 0v57q76 6 111.5 12.5t59 29.5t28 55t4.5 100v815q0 50 -1.5 78.5t-9.5 53t-16.5 35t-32.5 19.5t-46.5 12t-69.5 7v57h913l17 -295l-60 -10q-22 104 -65 176q-22 32 -72.5 45t-159.5 13h-155q-47 0 -57.5 -10t-10.5 -56v-465h193q49 0 78.5 1.5t54.5 8.5t36.5 15 t22.5 29t16 40.5t13 59.5h59v-394h-59q-8 41 -13 63.5t-16.5 43t-23 29t-37 15.5t-53 8t-76.5 1h-195v-387q0 -72 10.5 -109t38.5 -57q27 -17 74 -21.5t139 -4.5q116 0 170 14.5t88 54.5q61 71 101 193l61 -8q-35 -197 -71 -324h-988zM303 1546q5 23 37.5 67t50.5 50 q229 -147 324 -211l-27 -51l-383 131z" />
<glyph unicode="&#xc9;" horiz-adv-x="1163" d="M59 0v57q76 6 111.5 12.5t59 29.5t28 55t4.5 100v815q0 50 -1.5 78.5t-9.5 53t-16.5 35t-32.5 19.5t-46.5 12t-69.5 7v57h913l17 -295l-60 -10q-22 104 -65 176q-22 32 -72.5 45t-159.5 13h-155q-47 0 -57.5 -10t-10.5 -56v-465h193q49 0 78.5 1.5t54.5 8.5t36.5 15 t22.5 29t16 40.5t13 59.5h59v-394h-59q-8 41 -13 63.5t-16.5 43t-23 29t-37 15.5t-53 8t-76.5 1h-195v-387q0 -72 10.5 -109t38.5 -57q27 -17 74 -21.5t139 -4.5q116 0 170 14.5t88 54.5q61 71 101 193l61 -8q-35 -197 -71 -324h-988zM473 1452q49 31 106 68t121.5 79 t94.5 62q18 -3 50.5 -46.5t37.5 -66.5l-4 -16l-379 -131z" />
<glyph unicode="&#xca;" horiz-adv-x="1163" d="M59 0v57q76 6 111.5 12.5t59 29.5t28 55t4.5 100v815q0 50 -1.5 78.5t-9.5 53t-16.5 35t-32.5 19.5t-46.5 12t-69.5 7v57h913l17 -295l-60 -10q-22 104 -65 176q-22 32 -72.5 45t-159.5 13h-155q-47 0 -57.5 -10t-10.5 -56v-465h193q49 0 78.5 1.5t54.5 8.5t36.5 15 t22.5 29t16 40.5t13 59.5h59v-394h-59q-8 41 -13 63.5t-16.5 43t-23 29t-37 15.5t-53 8t-76.5 1h-195v-387q0 -72 10.5 -109t38.5 -57q27 -17 74 -21.5t139 -4.5q116 0 170 14.5t88 54.5q61 71 101 193l61 -8q-35 -197 -71 -324h-988zM309 1452q180 139 258 219h43 q15 -15 31.5 -31t29.5 -28.5t33.5 -29.5t31 -26t34 -27.5t31.5 -24.5t35 -27t32 -25l-32 -51q-116 50 -248 127q-162 -91 -246 -127z" />
<glyph unicode="&#xcb;" horiz-adv-x="1163" d="M59 0v57q76 6 111.5 12.5t59 29.5t28 55t4.5 100v815q0 50 -1.5 78.5t-9.5 53t-16.5 35t-32.5 19.5t-46.5 12t-69.5 7v57h913l17 -295l-60 -10q-22 104 -65 176q-22 32 -72.5 45t-159.5 13h-155q-47 0 -57.5 -10t-10.5 -56v-465h193q49 0 78.5 1.5t54.5 8.5t36.5 15 t22.5 29t16 40.5t13 59.5h59v-394h-59q-8 41 -13 63.5t-16.5 43t-23 29t-37 15.5t-53 8t-76.5 1h-195v-387q0 -72 10.5 -109t38.5 -57q27 -17 74 -21.5t139 -4.5q116 0 170 14.5t88 54.5q61 71 101 193l61 -8q-35 -197 -71 -324h-988zM301 1530q0 42 29 72t69 30 q41 0 69 -29.5t28 -72.5q0 -40 -28 -69t-69 -29q-40 0 -69 29t-29 69zM692 1532q0 42 28.5 71t67.5 29q42 0 70.5 -29t28.5 -71q0 -40 -29 -70t-70 -30q-38 0 -67 30t-29 70z" />
<glyph unicode="&#xcc;" horiz-adv-x="698" d="M70 1546q7 24 39 67.5t51 49.5q207 -133 323 -211l-26 -51l-383 131zM78 0v57q47 3 72.5 6.5t49.5 12.5t33.5 19.5t17.5 34.5t9.5 51.5t1.5 74.5v819q0 47 -1.5 74.5t-9.5 51.5t-17.5 34.5t-33.5 19.5t-49.5 12.5t-72.5 6.5v57h543v-57q-47 -3 -72.5 -6.5t-49.5 -12.5 t-34 -19.5t-18 -34.5t-9.5 -51.5t-1.5 -74.5v-819q0 -48 1.5 -75.5t9.5 -51.5t18 -34.5t34 -19.5t49.5 -12t72.5 -6v-57h-543z" />
<glyph unicode="&#xcd;" horiz-adv-x="698" d="M78 0v57q47 3 72.5 6.5t49.5 12.5t33.5 19.5t17.5 34.5t9.5 51.5t1.5 74.5v819q0 47 -1.5 74.5t-9.5 51.5t-17.5 34.5t-33.5 19.5t-49.5 12.5t-72.5 6.5v57h543v-57q-47 -3 -72.5 -6.5t-49.5 -12.5t-34 -19.5t-18 -34.5t-9.5 -51.5t-1.5 -74.5v-819q0 -48 1.5 -75.5 t9.5 -51.5t18 -34.5t34 -19.5t49.5 -12t72.5 -6v-57h-543zM231 1452q49 32 160 104t162 105q17 -3 49 -46.5t37 -66.5l-4 -16l-379 -131z" />
<glyph unicode="&#xce;" horiz-adv-x="698" d="M70 1452q180 139 258 219h43q15 -15 31.5 -31t29.5 -28.5t33.5 -29.5t31 -26t34 -27.5t31.5 -24.5t35 -27t32 -25l-33 -51q-116 50 -248 127q-155 -87 -246 -127zM78 0v57q47 3 72.5 6.5t49.5 12.5t33.5 19.5t17.5 34.5t9.5 51.5t1.5 74.5v819q0 47 -1.5 74.5t-9.5 51.5 t-17.5 34.5t-33.5 19.5t-49.5 12.5t-72.5 6.5v57h543v-57q-47 -3 -72.5 -6.5t-49.5 -12.5t-34 -19.5t-18 -34.5t-9.5 -51.5t-1.5 -74.5v-819q0 -48 1.5 -75.5t9.5 -51.5t18 -34.5t34 -19.5t49.5 -12t72.5 -6v-57h-543z" />
<glyph unicode="&#xcf;" horiz-adv-x="698" d="M57 1524q0 44 28.5 73t68.5 29q42 0 70 -29t28 -73q0 -39 -29 -69t-69 -30q-39 0 -68 30t-29 69zM78 0v57q47 3 72.5 6.5t49.5 12.5t33.5 19.5t17.5 34.5t9.5 51.5t1.5 74.5v819q0 47 -1.5 74.5t-9.5 51.5t-17.5 34.5t-33.5 19.5t-49.5 12.5t-72.5 6.5v57h543v-57 q-47 -3 -72.5 -6.5t-49.5 -12.5t-34 -19.5t-18 -34.5t-9.5 -51.5t-1.5 -74.5v-819q0 -48 1.5 -75.5t9.5 -51.5t18 -34.5t34 -19.5t49.5 -12t72.5 -6v-57h-543zM446 1526q0 42 29.5 71t69.5 29q41 0 68.5 -28.5t27.5 -71.5q0 -40 -27.5 -69.5t-68.5 -29.5q-40 0 -69.5 29.5 t-29.5 69.5z" />
<glyph unicode="&#xd0;" horiz-adv-x="1509" d="M76 655v84h209v312q0 53 -1.5 84t-9 58t-16.5 39t-32 22t-47 13.5t-68 6.5v57h563q386 0 567 -176q80 -76 128 -188.5t48 -249.5q0 -357 -256 -547q-226 -170 -598 -170h-471v57q49 3 76 6.5t51.5 14t35 22.5t19 39t10 58t1.5 84v374h-209zM459 270q0 -55 7 -88.5t28 -59 t60.5 -36t102.5 -10.5q112 0 204.5 32t156.5 88t108.5 133.5t65 167t20.5 189.5q0 168 -59 296t-176 200q-127 82 -332 82q-122 0 -160 -21q-26 -14 -26 -88v-416h323v-84h-323v-385z" />
<glyph unicode="&#xd1;" horiz-adv-x="1521" d="M41 1274v57h303l854 -1028h6v504q0 207 -14 340q-7 68 -50.5 94.5t-150.5 32.5v57h484v-57q-89 -5 -128 -31t-45 -92q-12 -91 -12 -344v-825h-63l-873 1073h-4v-514q0 -228 12 -346q7 -76 48.5 -104t148.5 -34v-57h-485v57q92 5 132.5 32.5t47.5 100.5q12 126 12 351v450 q0 110 -6 139.5t-35 67.5q-30 38 -69.5 54t-112.5 22zM500 1446q34 88 77.5 128t86.5 40q45 0 127 -39q71 -33 112 -33q28 0 49.5 21t42.5 67l52 -28q-29 -95 -74 -135t-94 -40q-48 0 -142 46q-61 26 -90 26q-28 0 -50.5 -21.5t-47.5 -66.5z" />
<glyph unicode="&#xd2;" horiz-adv-x="1529" d="M90 651q0 111 30 215.5t89 194t140.5 157t192 106t236.5 38.5q130 0 250 -49.5t211.5 -136.5t146 -215.5t54.5 -278.5q0 -162 -54 -297.5t-147 -225.5t-217.5 -140t-265.5 -50q-137 0 -260 52t-212.5 141.5t-141.5 216.5t-52 272zM299 709q0 -190 64.5 -342.5t178.5 -238 t257 -85.5q87 0 163.5 37t137 107t96 183.5t35.5 256.5q0 158 -39.5 285t-107.5 208t-156.5 124.5t-190.5 43.5q-87 0 -165 -37.5t-139.5 -108t-97.5 -182.5t-36 -251zM498 1565q7 24 39 67t51 49q43 -29 154 -100.5t169 -110.5l-26 -53l-383 131z" />
<glyph unicode="&#xd3;" horiz-adv-x="1529" d="M90 651q0 111 30 215.5t89 194t140.5 157t192 106t236.5 38.5q130 0 250 -49.5t211.5 -136.5t146 -215.5t54.5 -278.5q0 -162 -54 -297.5t-147 -225.5t-217.5 -140t-265.5 -50q-137 0 -260 52t-212.5 141.5t-141.5 216.5t-52 272zM299 709q0 -190 64.5 -342.5t178.5 -238 t257 -85.5q87 0 163.5 37t137 107t96 183.5t35.5 256.5q0 158 -39.5 285t-107.5 208t-156.5 124.5t-190.5 43.5q-87 0 -165 -37.5t-139.5 -108t-97.5 -182.5t-36 -251zM621 1466q59 38 168 109.5t153 99.5q18 -3 50.5 -46t37.5 -66l-4 -17l-379 -131z" />
<glyph unicode="&#xd4;" horiz-adv-x="1529" d="M90 651q0 111 30 215.5t89 194t140.5 157t192 106t236.5 38.5q130 0 250 -49.5t211.5 -136.5t146 -215.5t54.5 -278.5q0 -162 -54 -297.5t-147 -225.5t-217.5 -140t-265.5 -50q-137 0 -260 52t-212.5 141.5t-141.5 216.5t-52 272zM299 709q0 -190 64.5 -342.5t178.5 -238 t257 -85.5q87 0 163.5 37t137 107t96 183.5t35.5 256.5q0 158 -39.5 285t-107.5 208t-156.5 124.5t-190.5 43.5q-87 0 -165 -37.5t-139.5 -108t-97.5 -182.5t-36 -251zM483 1466q184 142 258 222h45q80 -86 256 -222l-32 -51q-105 49 -248 127q-185 -100 -246 -127z" />
<glyph unicode="&#xd5;" horiz-adv-x="1529" d="M90 651q0 111 30 215.5t89 194t140.5 157t192 106t236.5 38.5q130 0 250 -49.5t211.5 -136.5t146 -215.5t54.5 -278.5q0 -162 -54 -297.5t-147 -225.5t-217.5 -140t-265.5 -50q-137 0 -260 52t-212.5 141.5t-141.5 216.5t-52 272zM299 709q0 -190 64.5 -342.5t178.5 -238 t257 -85.5q87 0 163.5 37t137 107t96 183.5t35.5 256.5q0 158 -39.5 285t-107.5 208t-156.5 124.5t-190.5 43.5q-87 0 -165 -37.5t-139.5 -108t-97.5 -182.5t-36 -251zM494 1464q36 89 79 128.5t86 39.5q45 0 127 -39q69 -32 111 -32q30 0 51.5 21t42.5 67l51 -29 q-30 -94 -75 -134t-93 -40t-143 45q-7 3 -22 10t-23 10t-20.5 6t-24.5 3q-50 0 -96 -90z" />
<glyph unicode="&#xd6;" horiz-adv-x="1529" d="M90 651q0 111 30 215.5t89 194t140.5 157t192 106t236.5 38.5q130 0 250 -49.5t211.5 -136.5t146 -215.5t54.5 -278.5q0 -162 -54 -297.5t-147 -225.5t-217.5 -140t-265.5 -50q-137 0 -260 52t-212.5 141.5t-141.5 216.5t-52 272zM299 709q0 -190 64.5 -342.5t178.5 -238 t257 -85.5q87 0 163.5 37t137 107t96 183.5t35.5 256.5q0 158 -39.5 285t-107.5 208t-156.5 124.5t-190.5 43.5q-87 0 -165 -37.5t-139.5 -108t-97.5 -182.5t-36 -251zM471 1534q0 42 29 71t69 29q41 0 69 -28.5t28 -71.5q0 -40 -28 -69t-69 -29q-40 0 -69 29t-29 69z M862 1534q0 42 28.5 72t67.5 30q41 0 70 -29.5t29 -72.5q0 -40 -29 -69t-70 -29q-38 0 -67 29t-29 69z" />
<glyph unicode="&#xd7;" horiz-adv-x="1187" d="M123 96l395 410l-395 405l72 78l399 -407l399 409l76 -76l-399 -409l399 -410l-76 -76l-399 408l-399 -408z" />
<glyph unicode="&#xd8;" horiz-adv-x="1533" d="M102 653q0 110 31 214.5t91.5 194t143.5 156.5t194.5 105.5t236.5 38.5q186 0 331 -94l105 153l61 -41l-102 -153q118 -95 189 -235.5t71 -305.5q0 -161 -54 -296.5t-147 -227t-219.5 -142.5t-269.5 -51q-196 0 -352 103l-117 -164l-53 49l108 158q-115 96 -181.5 234.5 t-66.5 303.5zM307 705q0 -133 36 -251.5t99 -201.5l617 907q-120 129 -307 129q-89 0 -168 -37.5t-141.5 -108t-99 -183.5t-36.5 -254zM492 188q56 -71 136 -108t171 -37q112 0 200 46t141.5 126.5t81 184.5t27.5 225q0 276 -143 473z" />
<glyph unicode="&#xd9;" horiz-adv-x="1507" d="M68 1274v57h530v-57q-45 -3 -70 -6t-48 -12t-32.5 -20t-17 -36t-9 -54t-1.5 -79v-467q0 -250 98 -384t287 -134q87 0 153.5 28.5t110.5 79t72 125t39.5 160.5t11.5 191v155q0 228 -14 338q-9 60 -50.5 83.5t-148.5 31.5v57h487v-57q-93 -6 -133 -32.5t-47 -88.5 q-10 -92 -10 -332v-170q0 -191 -35 -320.5t-121 -219.5q-68 -71 -164 -106.5t-202 -35.5q-201 0 -328 99q-92 71 -136 189t-44 298v512q0 50 -1.5 78.5t-9.5 53.5t-16.5 35.5t-32.5 20t-47.5 12.5t-70.5 7zM485 1546q7 24 39 67.5t51 49.5q229 -147 324 -211l-29 -51 l-381 131z" />
<glyph unicode="&#xda;" horiz-adv-x="1507" d="M68 1274v57h530v-57q-45 -3 -70 -6t-48 -12t-32.5 -20t-17 -36t-9 -54t-1.5 -79v-467q0 -250 98 -384t287 -134q87 0 153.5 28.5t110.5 79t72 125t39.5 160.5t11.5 191v155q0 228 -14 338q-9 60 -50.5 83.5t-148.5 31.5v57h487v-57q-93 -6 -133 -32.5t-47 -88.5 q-10 -92 -10 -332v-170q0 -191 -35 -320.5t-121 -219.5q-68 -71 -164 -106.5t-202 -35.5q-201 0 -328 99q-92 71 -136 189t-44 298v512q0 50 -1.5 78.5t-9.5 53.5t-16.5 35.5t-32.5 20t-47.5 12.5t-70.5 7zM653 1452q48 31 105 68t122 79t95 62q18 -3 50.5 -46.5t37.5 -66.5 l-4 -16l-381 -131z" />
<glyph unicode="&#xdb;" horiz-adv-x="1507" d="M68 1274v57h530v-57q-45 -3 -70 -6t-48 -12t-32.5 -20t-17 -36t-9 -54t-1.5 -79v-467q0 -250 98 -384t287 -134q87 0 153.5 28.5t110.5 79t72 125t39.5 160.5t11.5 191v155q0 228 -14 338q-9 60 -50.5 83.5t-148.5 31.5v57h487v-57q-93 -6 -133 -32.5t-47 -88.5 q-10 -92 -10 -332v-170q0 -191 -35 -320.5t-121 -219.5q-68 -71 -164 -106.5t-202 -35.5q-201 0 -328 99q-92 71 -136 189t-44 298v512q0 50 -1.5 78.5t-9.5 53.5t-16.5 35.5t-32.5 20t-47.5 12.5t-70.5 7zM500 1452q188 145 258 219h43q15 -15 31.5 -31t29.5 -28.5 t33.5 -29.5t31 -26t34 -27.5t31.5 -24.5t35 -27t32 -25l-33 -51q-104 44 -248 127q-162 -91 -246 -127z" />
<glyph unicode="&#xdc;" horiz-adv-x="1507" d="M68 1274v57h530v-57q-45 -3 -70 -6t-48 -12t-32.5 -20t-17 -36t-9 -54t-1.5 -79v-467q0 -250 98 -384t287 -134q87 0 153.5 28.5t110.5 79t72 125t39.5 160.5t11.5 191v155q0 228 -14 338q-9 60 -50.5 83.5t-148.5 31.5v57h487v-57q-93 -6 -133 -32.5t-47 -88.5 q-10 -92 -10 -332v-170q0 -191 -35 -320.5t-121 -219.5q-68 -71 -164 -106.5t-202 -35.5q-201 0 -328 99q-92 71 -136 189t-44 298v512q0 50 -1.5 78.5t-9.5 53.5t-16.5 35.5t-32.5 20t-47.5 12.5t-70.5 7zM479 1524q0 44 28 73t68 29q42 0 70.5 -29t28.5 -73q0 -39 -29 -69 t-70 -30q-39 0 -67.5 30t-28.5 69zM868 1526q0 42 29.5 71t69.5 29q41 0 68.5 -28.5t27.5 -71.5q0 -40 -27.5 -69.5t-68.5 -29.5q-40 0 -69.5 29.5t-29.5 69.5z" />
<glyph unicode="&#xdd;" horiz-adv-x="1298" d="M31 1274v57h489v-57q-44 -5 -70 -12t-40 -15t-14.5 -21.5t4.5 -26.5t18 -36q39 -74 82.5 -152t107.5 -188t84 -145q178 316 244 461q37 76 18 99.5t-137 35.5v57h453v-57q-103 -12 -143 -39t-101 -123q-143 -234 -260 -448q-20 -40 -26.5 -64.5t-6.5 -64.5v-279 q0 -47 1.5 -74t10 -51t20 -35t37.5 -20t55 -12.5t81 -6.5v-57h-580v57q51 3 78.5 6.5t54 12.5t37 19.5t19.5 34.5t10.5 51.5t1.5 74.5v272q0 30 -8 52t-35 69q-208 368 -258 451q-63 107 -100 136t-127 38zM555 1452q49 32 160 104t162 105q18 -3 49.5 -46.5t36.5 -66.5 l-2 -16l-381 -131z" />
<glyph unicode="&#xde;" horiz-adv-x="1124" d="M76 0v57q45 3 70 6.5t48 13t32.5 21.5t17 37.5t9 54.5t1.5 80v791q0 52 -1 80.5t-8 55t-16 37.5t-30.5 20.5t-45 13t-67.5 6.5v57h504v-57q-33 -3 -50.5 -4.5t-38 -7t-29.5 -11.5t-19.5 -19.5t-14 -28t-7.5 -41t-4.5 -54.5t-0.5 -72q122 4 180 4q209 0 323.5 -85.5 t114.5 -264.5q0 -92 -39 -166t-105.5 -119.5t-150.5 -69.5t-178 -24l-145 35v-86q0 -48 1.5 -76t10 -52t19 -35.5t35 -20.5t51.5 -12.5t75 -6.5v-57h-542zM426 418q62 -25 139 -25q124 0 204.5 76t80.5 215q0 142 -76.5 214.5t-214.5 72.5q-80 0 -110 -19q-12 -7 -17.5 -20 t-5.5 -45v-469z" />
<glyph unicode="&#xdf;" horiz-adv-x="1116" d="M57 827l58 68h96v25q0 90 22 176q42 144 170 252q119 99 263 110q142 -3 230 -83.5t91 -223.5q0 -49 -22 -86q-211 -162 -211 -279q0 -34 20 -68.5t43 -57.5t65 -59q4 -3 7 -5.5t6 -5.5q36 -32 58.5 -55t51 -59t42.5 -75.5t14 -81.5q0 -58 -25.5 -113.5t-66.5 -96.5 t-90.5 -72.5t-100.5 -47.5t-94 -16q-68 0 -113 27q-50 29 -41 68q3 12 14.5 29t22.5 26q23 16 43 2q74 -59 152 -59q54 0 99.5 41t45.5 126q0 63 -34.5 114.5t-104.5 111.5q-87 74 -127.5 133.5t-40.5 118.5q0 53 33 105t110 134q74 71 88 92q15 24 15 68q0 103 -70 182.5 t-174 79.5q-50 0 -88 -20t-62.5 -59.5t-40.5 -87t-24 -115t-11 -129t-3 -142.5v-606q0 -97 18 -124t90 -34v-55h-418v55q99 7 123.5 34t24.5 120v598h-145z" />
<glyph unicode="&#xe0;" horiz-adv-x="899" d="M80 225q0 146 166 203q261 87 317 133v37q0 108 -47 169.5t-125 61.5q-59 0 -92 -41q-36 -36 -61 -135q-11 -47 -60 -47q-30 0 -60 27t-30 61q0 21 15.5 38.5t50.5 43.5q57 41 143 85t164 59q100 0 168 -56q92 -75 92 -250v-381q0 -64 21 -93t51 -29q36 0 73 22l21 -53 l-174 -105q-23 0 -51 11.5t-46 27.5q-33 35 -49 92q-12 -8 -49 -33.5t-55.5 -37.5t-47.5 -29t-50.5 -24t-38.5 -7q-106 0 -176 75t-70 175zM221 1333l6 17q13 8 74.5 18.5t83.5 7.5q22 -52 68.5 -178.5t62.5 -165.5l-55 -26q-49 68 -133.5 182.5t-106.5 144.5zM254 256 q0 -74 45.5 -116t99.5 -42q39 1 86.5 23t77.5 51v320q-6 -3 -184 -86q-64 -30 -94.5 -63.5t-30.5 -86.5z" />
<glyph unicode="&#xe1;" horiz-adv-x="899" d="M80 225q0 146 166 203q261 87 317 133v37q0 108 -47 169.5t-125 61.5q-59 0 -92 -41q-36 -36 -61 -135q-11 -47 -60 -47q-30 0 -60 27t-30 61q0 21 15.5 38.5t50.5 43.5q57 41 143 85t164 59q100 0 168 -56q92 -75 92 -250v-381q0 -64 21 -93t51 -29q36 0 73 22l21 -53 l-174 -105q-23 0 -51 11.5t-46 27.5q-33 35 -49 92q-12 -8 -49 -33.5t-55.5 -37.5t-47.5 -29t-50.5 -24t-38.5 -7q-106 0 -176 75t-70 175zM254 256q0 -74 45.5 -116t99.5 -42q39 1 86.5 23t77.5 51v320q-6 -3 -184 -86q-64 -30 -94.5 -63.5t-30.5 -86.5zM362 1036 q64 142 138 326q16 7 82 14.5t84 3.5l6 -18l-256 -352z" />
<glyph unicode="&#xe2;" horiz-adv-x="899" d="M80 225q0 146 166 203q261 87 317 133v37q0 108 -47 169.5t-125 61.5q-59 0 -92 -41q-36 -36 -61 -135q-11 -47 -60 -47q-30 0 -60 27t-30 61q0 21 15.5 38.5t50.5 43.5q57 41 143 85t164 59q100 0 168 -56q92 -75 92 -250v-381q0 -64 21 -93t51 -29q36 0 73 22l21 -53 l-174 -105q-23 0 -51 11.5t-46 27.5q-33 35 -49 92q-12 -8 -49 -33.5t-55.5 -37.5t-47.5 -29t-50.5 -24t-38.5 -7q-106 0 -176 75t-70 175zM197 1040q115 164 204 334h52q95 -181 202 -334l-49 -34q-92 85 -180 198q-88 -112 -180 -198zM254 256q0 -74 45.5 -116t99.5 -42 q39 1 86.5 23t77.5 51v320q-6 -3 -184 -86q-64 -30 -94.5 -63.5t-30.5 -86.5z" />
<glyph unicode="&#xe3;" horiz-adv-x="899" d="M80 225q0 146 166 203q261 87 317 133v37q0 108 -47 169.5t-125 61.5q-59 0 -92 -41q-36 -36 -61 -135q-11 -47 -60 -47q-30 0 -60 27t-30 61q0 21 15.5 38.5t50.5 43.5q57 41 143 85t164 59q100 0 168 -56q92 -75 92 -250v-381q0 -64 21 -93t51 -29q36 0 73 22l21 -53 l-174 -105q-23 0 -51 11.5t-46 27.5q-33 35 -49 92q-12 -8 -49 -33.5t-55.5 -37.5t-47.5 -29t-50.5 -24t-38.5 -7q-106 0 -176 75t-70 175zM168 1100q31 97 75 140.5t89 43.5t119 -39q76 -39 108 -39q26 0 46 22t44 70l51 -28q-58 -185 -161 -185q-52 0 -136 50 q-55 30 -94 30q-48 0 -88 -98zM254 256q0 -74 45.5 -116t99.5 -42q39 1 86.5 23t77.5 51v320q-6 -3 -184 -86q-64 -30 -94.5 -63.5t-30.5 -86.5z" />
<glyph unicode="&#xe4;" horiz-adv-x="899" d="M80 225q0 146 166 203q261 87 317 133v37q0 108 -47 169.5t-125 61.5q-59 0 -92 -41q-36 -36 -61 -135q-11 -47 -60 -47q-30 0 -60 27t-30 61q0 21 15.5 38.5t50.5 43.5q57 41 143 85t164 59q100 0 168 -56q92 -75 92 -250v-381q0 -64 21 -93t51 -29q36 0 73 22l21 -53 l-174 -105q-23 0 -51 11.5t-46 27.5q-33 35 -49 92q-12 -8 -49 -33.5t-55.5 -37.5t-47.5 -29t-50.5 -24t-38.5 -7q-106 0 -176 75t-70 175zM158 1200q0 43 29.5 73t70.5 30q40 0 67 -30t27 -73q0 -39 -28 -68.5t-68 -29.5q-39 0 -68.5 29.5t-29.5 68.5zM254 256 q0 -74 45.5 -116t99.5 -42q39 1 86.5 23t77.5 51v320q-6 -3 -184 -86q-64 -30 -94.5 -63.5t-30.5 -86.5zM504 1200q0 43 28.5 73t69.5 30q40 0 68 -30t28 -73q0 -39 -28.5 -68.5t-69.5 -29.5q-39 0 -67.5 29.5t-28.5 68.5z" />
<glyph unicode="&#xe5;" horiz-adv-x="899" d="M80 225q0 146 166 203q261 87 317 133v37q0 108 -47 169.5t-125 61.5q-59 0 -92 -41q-36 -36 -61 -135q-11 -47 -60 -47q-30 0 -60 27t-30 61q0 21 15.5 38.5t50.5 43.5q57 41 143 85t164 59q100 0 168 -56q92 -75 92 -250v-381q0 -64 21 -93t51 -29q36 0 73 22l21 -53 l-174 -105q-23 0 -51 11.5t-46 27.5q-33 35 -49 92q-12 -8 -49 -33.5t-55.5 -37.5t-47.5 -29t-50.5 -24t-38.5 -7q-106 0 -176 75t-70 175zM248 1198q0 76 55.5 123t128.5 47q70 0 125 -47t55 -123q0 -78 -55 -127t-127 -49t-127 49t-55 127zM254 256q0 -74 45.5 -116 t99.5 -42q39 1 86.5 23t77.5 51v320q-6 -3 -184 -86q-64 -30 -94.5 -63.5t-30.5 -86.5zM340 1198q0 -48 26.5 -80.5t65.5 -32.5q40 0 65 32.5t25 80.5q0 47 -25 77t-67 30q-38 0 -64 -30.5t-26 -76.5z" />
<glyph unicode="&#xe6;" horiz-adv-x="1374" d="M82 221q0 78 39 127t123 78q9 3 43.5 15t49 17t47 16.5t49.5 18t43.5 17.5t43 18.5t34 17t28.5 17.5v47q0 96 -53 157.5t-128 61.5q-64 0 -96 -47q-27 -29 -57 -131q-13 -49 -55 -49q-27 0 -61 28t-34 58q0 45 64 88q52 38 141 82t168 62q93 0 152 -43q58 -42 84 -111 q61 70 141.5 112.5t159.5 43.5q129 0 221 -95t94 -217q0 -35 -9.5 -50t-37.5 -21q-28 -5 -198.5 -16.5t-344.5 -16.5q-1 -99 25.5 -176.5t72.5 -123.5t102 -69.5t118 -23.5q119 0 227 102l35 -41q-43 -57 -94 -99t-97 -62t-81 -29t-62 -9q-110 0 -194.5 48.5t-135.5 134.5 l-71 -56q-68 -52 -137.5 -89.5t-110.5 -37.5q-108 0 -178 75.5t-70 170.5zM256 260q0 -72 45 -114t105 -42q126 0 215 115q-41 87 -41 273q-54 -25 -201 -86q-66 -27 -94.5 -59.5t-28.5 -86.5zM743 588q121 0 359 4q24 0 33.5 10t9.5 37q2 84 -48 144.5t-136 60.5 q-76 0 -140 -67.5t-78 -188.5z" />
<glyph unicode="&#xe7;" horiz-adv-x="862" d="M76 399q0 119 54 223.5t153 180.5q154 117 313 117q46 0 100 -15.5t82 -40.5q34 -27 31 -61q0 -29 -26 -58.5t-48 -29.5q-15 0 -37 22q-94 84 -209 84q-44 0 -85.5 -18.5t-78 -56t-59 -102.5t-22.5 -148q-1 -85 20.5 -153t54.5 -109.5t75.5 -69.5t81.5 -38.5t75 -10.5 q71 0 126.5 24t123.5 90l37 -45q-135 -163 -281 -200l-29 -37q-17 -28 -14 -42t29 -42q75 -72 75 -137q0 -61 -62 -116t-167 -91l-22 53q59 27 89.5 60t30.5 65q0 9 -2 17.5t-8.5 18t-9.5 14t-13 15.5t-12 13q-39 37 -44.5 61t20.5 62l61 77q-177 6 -290 127t-113 297z" />
<glyph unicode="&#xe8;" horiz-adv-x="870" d="M76 412q0 210 135 358q63 71 142.5 110.5t158.5 39.5q125 0 216 -95t91 -217q0 -31 -10 -45t-37 -20q-33 -6 -201.5 -18t-332.5 -17q1 -100 28 -178.5t72 -123.5t97 -68t108 -23q125 0 233 102l33 -43q-59 -75 -129.5 -122.5t-118.5 -62t-86 -14.5q-122 0 -214.5 61.5 t-138.5 160t-46 215.5zM248 592q168 0 346 6q27 0 38 9.5t11 31.5q2 83 -48 144t-132 61q-74 0 -133.5 -66t-81.5 -186zM248 1333l8 17q13 8 74.5 18.5t83.5 7.5q16 -41 38.5 -100.5t50 -135t40.5 -108.5l-54 -26q-129 177 -241 327z" />
<glyph unicode="&#xe9;" horiz-adv-x="870" d="M76 412q0 210 135 358q63 71 142.5 110.5t158.5 39.5q125 0 216 -95t91 -217q0 -31 -10 -45t-37 -20q-33 -6 -201.5 -18t-332.5 -17q1 -100 28 -178.5t72 -123.5t97 -68t108 -23q125 0 233 102l33 -43q-59 -75 -129.5 -122.5t-118.5 -62t-86 -14.5q-122 0 -214.5 61.5 t-138.5 160t-46 215.5zM248 592q168 0 346 6q27 0 38 9.5t11 31.5q2 83 -48 144t-132 61q-74 0 -133.5 -66t-81.5 -186zM393 1036q56 123 137 326q16 7 82 14.5t84 3.5l6 -18l-256 -352z" />
<glyph unicode="&#xea;" horiz-adv-x="870" d="M76 412q0 210 135 358q63 71 142.5 110.5t158.5 39.5q125 0 216 -95t91 -217q0 -31 -10 -45t-37 -20q-33 -6 -201.5 -18t-332.5 -17q1 -100 28 -178.5t72 -123.5t97 -68t108 -23q125 0 233 102l33 -43q-59 -75 -129.5 -122.5t-118.5 -62t-86 -14.5q-122 0 -214.5 61.5 t-138.5 160t-46 215.5zM236 1040q115 159 206 334h52q95 -181 202 -334l-49 -34q-85 77 -180 198q-101 -125 -180 -198zM248 592q168 0 346 6q27 0 38 9.5t11 31.5q2 83 -48 144t-132 61q-74 0 -133.5 -66t-81.5 -186z" />
<glyph unicode="&#xeb;" horiz-adv-x="870" d="M76 412q0 210 135 358q63 71 142.5 110.5t158.5 39.5q125 0 216 -95t91 -217q0 -31 -10 -45t-37 -20q-33 -6 -201.5 -18t-332.5 -17q1 -100 28 -178.5t72 -123.5t97 -68t108 -23q125 0 233 102l33 -43q-59 -75 -129.5 -122.5t-118.5 -62t-86 -14.5q-122 0 -214.5 61.5 t-138.5 160t-46 215.5zM188 1200q0 43 30 73t71 30q40 0 67 -30t27 -73q0 -39 -28 -68.5t-68 -29.5q-39 0 -69 30t-30 68zM248 592q168 0 346 6q27 0 38 9.5t11 31.5q2 83 -48 144t-132 61q-74 0 -133.5 -66t-81.5 -186zM535 1200q0 43 28.5 73t69.5 30q40 0 68 -30t28 -73 q0 -39 -28.5 -68.5t-69.5 -29.5q-39 0 -67.5 29.5t-28.5 68.5z" />
<glyph unicode="&#xec;" horiz-adv-x="548" d="M51 1333l6 17q14 8 76 18.5t84 7.5q19 -47 64 -170.5t65 -173.5l-55 -26q-78 109 -240 327zM68 0v53q35 3 55.5 6.5t38.5 11.5t26 17.5t14 29.5t7.5 42.5t1.5 60.5v410q0 56 -2.5 81.5t-18 44.5t-37 24.5t-71.5 13.5v49q156 24 291 80v-703q0 -39 1 -61t7 -42t14 -29.5 t26 -17.5t38.5 -11.5t56.5 -6.5v-53h-448z" />
<glyph unicode="&#xed;" horiz-adv-x="548" d="M68 0v53q35 3 55.5 6.5t38.5 11.5t26 17.5t14 29.5t7.5 42.5t1.5 60.5v410q0 56 -2.5 81.5t-18 44.5t-37 24.5t-71.5 13.5v49q156 24 291 80v-703q0 -39 1 -61t7 -42t14 -29.5t26 -17.5t38.5 -11.5t56.5 -6.5v-53h-448zM201 1036q56 123 137 326q16 7 82 14.5t84 3.5 l6 -18l-256 -352z" />
<glyph unicode="&#xee;" horiz-adv-x="548" d="M41 1040q119 170 205 334h51q105 -195 203 -334l-49 -34q-95 88 -181 198q-88 -112 -180 -198zM68 0v53q35 3 55.5 6.5t38.5 11.5t26 17.5t14 29.5t7.5 42.5t1.5 60.5v410q0 56 -2.5 81.5t-18 44.5t-37 24.5t-71.5 13.5v49q156 24 291 80v-703q0 -39 1 -61t7 -42 t14 -29.5t26 -17.5t38.5 -11.5t56.5 -6.5v-53h-448z" />
<glyph unicode="&#xef;" horiz-adv-x="548" d="M0 1200q0 43 29.5 73t70.5 30q40 0 67.5 -30t27.5 -73q0 -39 -28.5 -68.5t-68.5 -29.5q-39 0 -68.5 29.5t-29.5 68.5zM68 0v53q35 3 55.5 6.5t38.5 11.5t26 17.5t14 29.5t7.5 42.5t1.5 60.5v410q0 56 -2.5 81.5t-18 44.5t-37 24.5t-71.5 13.5v49q156 24 291 80v-703 q0 -39 1 -61t7 -42t14 -29.5t26 -17.5t38.5 -11.5t56.5 -6.5v-53h-448zM346 1200q0 43 28.5 73t69.5 30q40 0 68.5 -30t28.5 -73q0 -39 -29 -68.5t-70 -29.5q-39 0 -67.5 29.5t-28.5 68.5z" />
<glyph unicode="&#xf0;" horiz-adv-x="1034" d="M78 428q0 96 28.5 178.5t75 139t106 96.5t121.5 59t121 19q107 0 197 -50q-37 170 -147 297l-297 -159l-33 63l276 150q-164 149 -354 176q-9 12 -4.5 32.5t16.5 28.5q110 -6 230 -52t217 -126l258 137l33 -63l-234 -123q136 -143 202 -310.5t66 -373.5 q0 -143 -37.5 -255t-102 -180t-143.5 -102.5t-167 -34.5q-95 0 -177.5 40t-136 105t-84 145.5t-30.5 162.5zM268 485q0 -195 75 -317.5t200 -122.5q47 0 86 21t72.5 68.5t53.5 135.5t21 211q1 134 -13 194.5t-48 96.5q-83 80 -195 80q-113 0 -182.5 -101t-69.5 -266z" />
<glyph unicode="&#xf1;" horiz-adv-x="1120" d="M59 0v53q39 4 60 7t40.5 11t27 16.5t14 27.5t7.5 40t1 58v424q0 53 -2.5 77.5t-18 42.5t-35.5 23.5t-67 14.5v47q169 31 285 84v-164q28 21 137 96q96 62 170 62q123 0 193.5 -82t70.5 -230v-395q0 -57 2.5 -83t18 -44t37 -23t71.5 -10v-53h-426v53q91 9 113 36.5 t22 133.5v342q0 234 -186 234q-102 0 -223 -105v-481q0 -38 1 -59.5t7 -40.5t13 -27.5t24.5 -16t35.5 -10.5t52 -6v-53h-445zM289 1100q31 97 75 140.5t89 43.5q44 0 118 -39q76 -39 109 -39q27 0 48 22.5t42 69.5l51 -28q-55 -185 -162 -185q-47 0 -135 50q-55 30 -94 30 q-48 0 -88 -98z" />
<glyph unicode="&#xf2;" horiz-adv-x="1044" d="M76 428q0 121 43.5 218.5t111.5 155t144 88t149 30.5q189 0 317 -132.5t128 -324.5q0 -96 -27 -177.5t-71.5 -137.5t-102.5 -96t-120 -58.5t-124 -18.5q-102 0 -188 38.5t-142 102.5t-87 145t-31 167zM266 494q0 -196 78 -323.5t203 -127.5q104 0 167.5 88.5t63.5 286.5 q0 122 -30.5 219t-94 156t-149.5 59q-100 0 -169 -96t-69 -262zM309 1333l6 17q13 8 74.5 18.5t83.5 7.5q22 -52 68.5 -178.5t62.5 -165.5l-55 -26q-49 68 -133.5 182.5t-106.5 144.5z" />
<glyph unicode="&#xf3;" horiz-adv-x="1044" d="M76 428q0 121 43.5 218.5t111.5 155t144 88t149 30.5q189 0 317 -132.5t128 -324.5q0 -96 -27 -177.5t-71.5 -137.5t-102.5 -96t-120 -58.5t-124 -18.5q-102 0 -188 38.5t-142 102.5t-87 145t-31 167zM266 494q0 -196 78 -323.5t203 -127.5q104 0 167.5 88.5t63.5 286.5 q0 122 -30.5 219t-94 156t-149.5 59q-100 0 -169 -96t-69 -262zM449 1036q56 123 137 326q16 7 82 14.5t84 3.5l6 -18l-256 -352z" />
<glyph unicode="&#xf4;" horiz-adv-x="1044" d="M76 428q0 121 43.5 218.5t111.5 155t144 88t149 30.5q189 0 317 -132.5t128 -324.5q0 -96 -27 -177.5t-71.5 -137.5t-102.5 -96t-120 -58.5t-124 -18.5q-102 0 -188 38.5t-142 102.5t-87 145t-31 167zM266 494q0 -196 78 -323.5t203 -127.5q104 0 167.5 88.5t63.5 286.5 q0 122 -30.5 219t-94 156t-149.5 59q-100 0 -169 -96t-69 -262zM293 1040q119 170 205 334h51q92 -176 203 -334l-50 -34q-85 77 -180 198q-88 -112 -180 -198z" />
<glyph unicode="&#xf5;" horiz-adv-x="1044" d="M76 428q0 121 43.5 218.5t111.5 155t144 88t149 30.5q189 0 317 -132.5t128 -324.5q0 -96 -27 -177.5t-71.5 -137.5t-102.5 -96t-120 -58.5t-124 -18.5q-102 0 -188 38.5t-142 102.5t-87 145t-31 167zM256 1100q31 97 75 140.5t89 43.5t119 -39q76 -39 108 -39 q27 0 48 22.5t42 69.5l51 -28q-55 -185 -161 -185q-47 0 -135 50q-56 30 -95 30q-48 0 -88 -98zM266 494q0 -196 78 -323.5t203 -127.5q104 0 167.5 88.5t63.5 286.5q0 122 -30.5 219t-94 156t-149.5 59q-100 0 -169 -96t-69 -262z" />
<glyph unicode="&#xf6;" horiz-adv-x="1044" d="M76 428q0 121 43.5 218.5t111.5 155t144 88t149 30.5q189 0 317 -132.5t128 -324.5q0 -96 -27 -177.5t-71.5 -137.5t-102.5 -96t-120 -58.5t-124 -18.5q-102 0 -188 38.5t-142 102.5t-87 145t-31 167zM252 1200q0 43 29.5 73t70.5 30q40 0 67 -30t27 -73q0 -39 -28 -68.5 t-68 -29.5q-39 0 -68.5 29.5t-29.5 68.5zM266 494q0 -196 78 -323.5t203 -127.5q104 0 167.5 88.5t63.5 286.5q0 122 -30.5 219t-94 156t-149.5 59q-100 0 -169 -96t-69 -262zM598 1200q0 43 28.5 73t69.5 30q40 0 68.5 -30t28.5 -73q0 -39 -29 -68.5t-70 -29.5 q-39 0 -67.5 29.5t-28.5 68.5z" />
<glyph unicode="&#xf7;" horiz-adv-x="1187" d="M106 471v100h977v-100h-977zM494 215q0 43 29.5 71.5t72.5 28.5q38 0 69 -29.5t31 -70.5q0 -39 -31.5 -69.5t-68.5 -30.5q-42 0 -72 30t-30 70zM498 827q0 39 31 70t69 31q41 0 71.5 -30.5t30.5 -70.5q0 -42 -30 -72t-72 -30q-39 0 -69.5 30t-30.5 72z" />
<glyph unicode="&#xf8;" horiz-adv-x="1050" d="M76 430q0 97 29 179.5t76.5 138.5t108 96t122 58t120.5 18q119 0 224 -60l73 107l56 -37l-74 -109q77 -64 120.5 -157t43.5 -199q0 -117 -40 -212.5t-105 -154.5t-142.5 -91t-157.5 -32q-129 0 -235 64l-82 -113l-51 45l78 107q-77 66 -120.5 159.5t-43.5 192.5zM258 477 q0 -163 64 -272l368 557q-30 41 -78 65.5t-102 24.5q-107 0 -179.5 -99.5t-72.5 -275.5zM365 143q65 -100 184 -100q105 0 174.5 97.5t69.5 297.5q0 148 -62 260z" />
<glyph unicode="&#xf9;" horiz-adv-x="1087" d="M59 825v47q139 9 293 37q-6 -63 -6 -299v-274q0 -126 50.5 -179t129.5 -53q120 0 222 99v477q0 32 -1 50t-8 35t-15 24.5t-29.5 15t-43 11t-63.5 9.5v47q199 11 321 37v-684q0 -75 17.5 -96.5t77.5 -24.5l57 -4v-51q-113 -17 -301 -74l-12 13v145q-97 -72 -152 -106 q-88 -52 -158 -52q-112 0 -183 75t-71 231v401q0 84 -18.5 105t-106.5 38zM305 1333l6 17q13 8 74.5 18.5t83.5 7.5q22 -52 68.5 -178.5t62.5 -165.5l-55 -26q-49 68 -133.5 182.5t-106.5 144.5z" />
<glyph unicode="&#xfa;" horiz-adv-x="1087" d="M59 825v47q139 9 293 37q-6 -63 -6 -299v-274q0 -126 50.5 -179t129.5 -53q120 0 222 99v477q0 32 -1 50t-8 35t-15 24.5t-29.5 15t-43 11t-63.5 9.5v47q199 11 321 37v-684q0 -75 17.5 -96.5t77.5 -24.5l57 -4v-51q-113 -17 -301 -74l-12 13v145q-97 -72 -152 -106 q-88 -52 -158 -52q-112 0 -183 75t-71 231v401q0 84 -18.5 105t-106.5 38zM463 1036q56 123 137 326q16 7 82 14.5t84 3.5l6 -18l-256 -352z" />
<glyph unicode="&#xfb;" horiz-adv-x="1087" d="M59 825v47q139 9 293 37q-6 -63 -6 -299v-274q0 -126 50.5 -179t129.5 -53q120 0 222 99v477q0 32 -1 50t-8 35t-15 24.5t-29.5 15t-43 11t-63.5 9.5v47q199 11 321 37v-684q0 -75 17.5 -96.5t77.5 -24.5l57 -4v-51q-113 -17 -301 -74l-12 13v145q-97 -72 -152 -106 q-88 -52 -158 -52q-112 0 -183 75t-71 231v401q0 84 -18.5 105t-106.5 38zM305 1040q106 148 207 334h51q92 -176 203 -334l-51 -34q-85 78 -178 198q-92 -114 -183 -198z" />
<glyph unicode="&#xfc;" horiz-adv-x="1087" d="M59 825v47q139 9 293 37q-6 -63 -6 -299v-274q0 -126 50.5 -179t129.5 -53q120 0 222 99v477q0 32 -1 50t-8 35t-15 24.5t-29.5 15t-43 11t-63.5 9.5v47q199 11 321 37v-684q0 -75 17.5 -96.5t77.5 -24.5l57 -4v-51q-113 -17 -301 -74l-12 13v145q-97 -72 -152 -106 q-88 -52 -158 -52q-112 0 -183 75t-71 231v401q0 84 -18.5 105t-106.5 38zM258 1200q0 43 29.5 73t70.5 30q40 0 67.5 -30t27.5 -73q0 -39 -28.5 -68.5t-68.5 -29.5q-39 0 -68.5 29.5t-29.5 68.5zM604 1200q0 43 28.5 73t69.5 30q40 0 68.5 -30t28.5 -73q0 -39 -29 -68.5 t-70 -29.5q-39 0 -67.5 29.5t-28.5 68.5z" />
<glyph unicode="&#xfd;" horiz-adv-x="940" d="M2 844v51h416v-51q-70 -12 -84.5 -34t6.5 -79l186 -514q102 248 189 510q19 60 -1 82.5t-106 34.5v51h371v-51q-81 -12 -110.5 -36.5t-71.5 -113.5q-22 -48 -53 -122.5t-89.5 -218.5t-113.5 -275q-105 -251 -147.5 -362t-63.5 -193q-13 -49 -66 -49q-43 0 -80 30.5 t-37 67.5q0 23 12.5 39t41.5 35q47 30 81 72t70 110q49 91 64 141q14 44 -2 92q-142 404 -236 627q-33 88 -63.5 116t-112.5 40zM449 1036q56 123 137 326q16 7 82 14.5t84 3.5l6 -18l-256 -352z" />
<glyph unicode="&#xfe;" horiz-adv-x="1052" d="M10 -440q53 4 77.5 9.5t43 23.5t23 47t4.5 84v1460q0 39 -0.5 59.5t-7 40t-13 27t-26 15t-39 10t-58.5 5.5v50q154 15 305 67v-672q129 71 226 117q39 17 73 17q82 0 151 -34.5t113 -90t68.5 -124t24.5 -139.5q1 -220 -146 -369t-366 -188q-83 5 -144 41v-288 q0 -58 4.5 -86t26.5 -47.5t53.5 -25t98.5 -9.5v-56h-492v56zM319 164q32 -35 89 -59.5t112 -24.5q54 0 103.5 21t91 63t66 115t24.5 167q0 171 -79.5 262t-203.5 91q-90 0 -203 -80v-555z" />
<glyph unicode="&#xff;" horiz-adv-x="940" d="M2 844v51h416v-51q-70 -12 -84.5 -34t6.5 -79l186 -514q102 248 189 510q19 60 -1 82.5t-106 34.5v51h371v-51q-81 -12 -110.5 -36.5t-71.5 -113.5q-22 -48 -53 -122.5t-89.5 -218.5t-113.5 -275q-105 -251 -147.5 -362t-63.5 -193q-13 -49 -66 -49q-43 0 -80 30.5 t-37 67.5q0 23 12.5 39t41.5 35q47 30 81 72t70 110q49 91 64 141q14 44 -2 92q-142 404 -236 627q-33 88 -63.5 116t-112.5 40zM223 1200q0 42 29.5 72.5t69.5 30.5q41 0 68.5 -30t27.5 -73q0 -39 -28.5 -68.5t-70.5 -29.5q-38 0 -67 30t-29 68zM567 1200q0 43 30 73t71 30 q40 0 68 -30t28 -73q0 -39 -28.5 -68.5t-69.5 -29.5q-40 0 -69.5 30t-29.5 68z" />
<glyph unicode="&#x152;" horiz-adv-x="1992" d="M92 649q0 209 104.5 370.5t281.5 247.5t396 87q43 0 111.5 -6t85.5 -7q117 -10 191 -10h563q6 -150 20 -291l-61 -6q-26 115 -64 170q-22 31 -71 43.5t-158 12.5h-160q-44 0 -54.5 -10t-10.5 -54v-465h202q46 0 75 1.5t52 9t34 15.5t21 28.5t14 39t11 56.5h62v-389h-62 q-6 32 -9.5 47.5t-10 35.5t-12 28t-17 19t-23.5 14.5t-33 7.5t-44 4.5t-58 0.5h-202v-377q0 -80 10.5 -117.5t38.5 -56.5q19 -13 55.5 -19t64 -6.5t93.5 -0.5q117 0 170 13.5t88 51.5q46 51 100 193l62 -8q-34 -184 -74 -322h-627q-116 0 -209 -8q-165 -15 -207 -15 q-146 0 -269 36.5t-208.5 99.5t-145.5 149t-88 183.5t-28 203.5zM301 676q0 -99 18.5 -188t61 -170t105 -140t157 -94t211.5 -35q102 0 168 29q40 21 56 51.5t16 95.5v893q0 56 -8 82.5t-29 38.5q-71 43 -205 43q-257 0 -403 -163.5t-148 -442.5z" />
<glyph unicode="&#x153;" horiz-adv-x="1576" d="M76 426q0 98 29.5 181.5t76 139.5t105.5 96.5t117.5 58.5t111.5 18q114 0 204 -54.5t142 -150.5q58 90 154 147.5t194 57.5q128 0 221 -94t93 -216q0 -37 -9 -50t-36 -19q-27 -5 -203 -17.5t-348 -17.5q-1 -103 25.5 -181t73.5 -123t102.5 -67t117.5 -22q113 0 232 104 l30 -45q-78 -106 -170 -151.5t-159 -45.5q-107 0 -194.5 48t-137.5 131q-63 -87 -152.5 -133t-181.5 -46q-99 0 -183.5 39.5t-139 104t-85 144.5t-30.5 163zM268 494q0 -200 75.5 -324.5t201.5 -124.5q97 0 161 92.5t64 286.5q0 188 -71 308t-199 120q-98 0 -165 -97 t-67 -261zM940 586q40 1 113 1.5t135.5 1.5t118.5 3q22 0 31.5 11.5t9.5 37.5q2 87 -51.5 145t-137.5 58q-77 0 -141 -68.5t-78 -189.5z" />
<glyph unicode="&#x178;" horiz-adv-x="1298" d="M31 1274v57h489v-57q-44 -5 -70 -12t-40 -15t-14.5 -21.5t4.5 -26.5t18 -36q39 -74 82.5 -152t107.5 -188t84 -145q178 316 244 461q37 76 18 99.5t-137 35.5v57h453v-57q-103 -12 -143 -39t-101 -123q-143 -234 -260 -448q-20 -40 -26.5 -64.5t-6.5 -64.5v-279 q0 -47 1.5 -74t10 -51t20 -35t37.5 -20t55 -12.5t81 -6.5v-57h-580v57q51 3 78.5 6.5t54 12.5t37 19.5t19.5 34.5t10.5 51.5t1.5 74.5v272q0 30 -8 52t-35 69q-208 368 -258 451q-63 107 -100 136t-127 38zM377 1524q0 44 28 73t68 29q42 0 70 -29t28 -73q0 -39 -29 -69 t-69 -30q-39 0 -67.5 30t-28.5 69zM766 1526q0 42 29 71t69 29q41 0 69 -28.5t28 -71.5q0 -40 -28 -69.5t-69 -29.5q-40 0 -69 29.5t-29 69.5z" />
<glyph unicode="&#x2c6;" horiz-adv-x="819" d="M180 1040q119 170 205 334h51q92 -176 203 -334l-49 -34q-92 85 -180 198q-85 -109 -181 -198z" />
<glyph unicode="&#x2dc;" horiz-adv-x="819" d="M143 1100q31 97 75 140.5t89 43.5t119 -39q76 -39 109 -39q27 0 48 22.5t42 69.5l51 -28q-56 -185 -162 -185q-47 0 -135 50q-56 30 -94 30q-48 0 -88 -98z" />
<glyph unicode="&#x2000;" horiz-adv-x="875" />
<glyph unicode="&#x2001;" horiz-adv-x="1751" />
<glyph unicode="&#x2002;" horiz-adv-x="875" />
<glyph unicode="&#x2003;" horiz-adv-x="1751" />
<glyph unicode="&#x2004;" horiz-adv-x="583" />
<glyph unicode="&#x2005;" horiz-adv-x="437" />
<glyph unicode="&#x2006;" horiz-adv-x="291" />
<glyph unicode="&#x2007;" horiz-adv-x="291" />
<glyph unicode="&#x2008;" horiz-adv-x="218" />
<glyph unicode="&#x2009;" horiz-adv-x="350" />
<glyph unicode="&#x200a;" horiz-adv-x="97" />
<glyph unicode="&#x2010;" horiz-adv-x="729" d="M117 406l28 112h469l-30 -112h-467z" />
<glyph unicode="&#x2011;" horiz-adv-x="729" d="M117 406l28 112h469l-30 -112h-467z" />
<glyph unicode="&#x2012;" horiz-adv-x="729" d="M117 406l28 112h469l-30 -112h-467z" />
<glyph unicode="&#x2013;" horiz-adv-x="1064" d="M102 412v104h859v-104h-859z" />
<glyph unicode="&#x2014;" horiz-adv-x="1888" d="M102 412v104h1684v-104h-1684z" />
<glyph unicode="&#x2018;" horiz-adv-x="458" d="M86 1198q0 101 78.5 170.5t187.5 97.5l21 -53q-81 -35 -120.5 -74.5t-39.5 -97.5q0 -53 36 -86t91 -43q12 -2 20.5 -12.5t8.5 -28.5q0 -36 -28.5 -57t-59.5 -21h-2q-71 0 -132 57t-61 148z" />
<glyph unicode="&#x2019;" horiz-adv-x="456" d="M86 1034q79 33 118.5 72.5t39.5 99.5q0 51 -36 84t-91 43q-27 4 -27 41q0 38 27.5 59t58.5 21q72 0 132.5 -58.5t60.5 -150.5q0 -68 -40 -124.5t-97 -90t-126 -51.5z" />
<glyph unicode="&#x201a;" horiz-adv-x="489" d="M100 -172q83 36 124.5 75.5t41.5 98.5q0 52 -39 86.5t-96 44.5q-27 4 -27 41q0 38 29 59t60 21q74 0 138 -59.5t64 -151.5q0 -104 -81.5 -175t-194.5 -99z" />
<glyph unicode="&#x201c;" horiz-adv-x="815" d="M86 1200q0 52 23 97.5t62 78t84.5 55t96.5 35.5l21 -53q-81 -35 -120.5 -74t-39.5 -98q0 -53 36 -86t91 -43q11 -2 20 -12.5t9 -28.5q0 -36 -28.5 -57t-59.5 -21h-2q-72 0 -132.5 57.5t-60.5 149.5zM444 1200q0 69 41 125.5t99 89.5t127 51l20 -53q-81 -35 -120.5 -74 t-39.5 -98q0 -53 36.5 -86t92.5 -43q11 -2 19 -12t8 -29q0 -36 -28.5 -57t-59.5 -21h-2q-72 0 -132.5 57.5t-60.5 149.5z" />
<glyph unicode="&#x201d;" horiz-adv-x="821" d="M84 1030q81 35 120.5 74.5t39.5 99.5q0 52 -36.5 85.5t-92.5 43.5q-27 5 -27 41t28.5 58t59.5 22q72 0 133.5 -58.5t61.5 -150.5q0 -101 -79 -170.5t-188 -97.5zM449 1030q80 35 119.5 75t39.5 99q0 52 -36.5 85.5t-92.5 43.5q-26 4 -26 41q0 36 28.5 58t59.5 22 q73 0 133.5 -58t60.5 -151q0 -69 -41 -126t-99 -90.5t-126 -51.5z" />
<glyph unicode="&#x201e;" horiz-adv-x="878" d="M100 -172q83 36 124.5 75.5t41.5 98.5q0 52 -39 86.5t-96 44.5q-27 4 -27 41q0 38 29 60t60 22q75 0 138.5 -59.5t63.5 -153.5q0 -55 -24 -101.5t-64.5 -79.5t-87.5 -56t-100 -37zM479 -172q83 35 124.5 75t41.5 99q0 53 -38.5 87t-96.5 44q-10 2 -18.5 13t-8.5 28 q0 38 28.5 60t59.5 22q75 0 139 -59.5t64 -153.5q0 -105 -80 -174.5t-194 -99.5z" />
<glyph unicode="&#x2022;" horiz-adv-x="798" d="M133 446q0 113 78 193t190 80q109 0 187 -80.5t78 -192.5q0 -115 -78 -194.5t-187 -79.5q-113 0 -190.5 79.5t-77.5 194.5z" />
<glyph unicode="&#x2026;" horiz-adv-x="1986" d="M215 94q0 50 32 83.5t81 33.5q50 0 82 -33.5t32 -83.5q0 -54 -31.5 -86.5t-82.5 -32.5q-50 0 -81.5 32.5t-31.5 86.5zM881 94q0 50 31.5 83.5t80.5 33.5q50 0 82.5 -33.5t32.5 -83.5q0 -54 -32 -86.5t-83 -32.5q-50 0 -81 32.5t-31 86.5zM1538 94q0 50 32.5 83.5 t82.5 33.5q49 0 80.5 -33.5t31.5 -83.5q0 -54 -31 -86.5t-81 -32.5q-51 0 -83 32.5t-32 86.5z" />
<glyph unicode="&#x202f;" horiz-adv-x="350" />
<glyph unicode="&#x2039;" horiz-adv-x="571" d="M100 453q148 153 324 376l47 -30l-192 -346l192 -342l-47 -33q-217 276 -324 375z" />
<glyph unicode="&#x203a;" horiz-adv-x="571" d="M100 109l191 346l-191 344l47 30q195 -245 324 -374q-149 -149 -324 -375z" />
<glyph unicode="&#x205f;" horiz-adv-x="437" />
<glyph unicode="&#x20ac;" d="M45 510v76h86q-3 61 4 143h-90v76h100q38 236 173.5 367t338.5 131q33 0 64 -3t59 -9t45.5 -10.5t42.5 -12t29 -8.5q24 -194 29 -250l-60 -13q-32 121 -82 178.5t-149 57.5q-121 0 -201 -109t-106 -319h448v-76h-457q-6 -69 -2 -143h459v-76h-450q14 -220 92.5 -342.5 t208.5 -122.5q84 0 138.5 55.5t115.5 180.5l59 -19q-13 -58 -38.5 -129t-45.5 -110q-38 -15 -111 -31.5t-133 -16.5q-110 0 -198 43.5t-144.5 119.5t-89.5 169.5t-43 202.5h-92z" />
<glyph unicode="&#x2122;" horiz-adv-x="940" d="M53 1202q1 22 3.5 62t2.5 53h27q3 -10 10 -10q4 -2 17 -2h217q16 0 26 12h25q0 -21 4 -115h-31q-14 48 -22 53q-15 15 -49 15h-31v-199q0 -42 8 -51t47 -10v-33h-176v33q38 1 45.5 10t7.5 51v199h-26q-39 0 -52 -17q-12 -9 -22 -51h-31zM410 977v33q23 0 32.5 6t12.5 20 q8 37 12 88l6 80q4 41 -4.5 51.5t-46.5 12.5v37h131l100 -207l103 207h129v-37q-32 -1 -38.5 -9.5t-6.5 -44.5l2 -139q0 -44 7 -53.5t40 -11.5v-33h-162v33q33 1 39 9.5t6 47.5l2 184h-4l-119 -268h-26l-109 252h-2l-8 -117q-2 -41 -2 -80q2 -15 11.5 -21t37.5 -7v-33h-143z " />
<glyph unicode="&#x25fc;" horiz-adv-x="890" d="M0 0v891h891v-891h-891z" />
<glyph unicode="&#xfb01;" horiz-adv-x="1095" d="M51 838l58 57h100v49q0 90 22 158q15 54 55 120t113 124q121 98 254 112q83 -3 138 -33.5t79 -64.5q24 -36 11 -74q-19 -33 -45 -51q-38 -21 -60 4q-101 119 -213 119q-77 0 -127 -72q-67 -91 -67 -321v-70h161q242 0 385 27v-717q0 -35 1 -55.5t7.5 -38.5t14 -26 t26 -15.5t39 -10.5t56.5 -6v-53h-434v53q47 4 69.5 9.5t37.5 22.5t18.5 42.5t3.5 77.5v502q0 71 -16.5 89.5t-88.5 18.5h-280v-610q0 -95 23 -119t120 -33v-53h-449v53q53 6 77.5 11.5t42.5 22.5t22 42.5t4 75.5v610h-148z" />
<glyph unicode="&#xfb02;" horiz-adv-x="1091" d="M55 838l56 57h96v37q0 109 26 182q41 136 166 238q112 91 240 106q97 0 168 -47q15 4 29 10t36 18t27 15l16 -10v-1239q0 -51 4 -76t21.5 -42.5t43 -23t79.5 -10.5v-53h-442v53q48 4 71.5 9.5t39 23t19 43t3.5 76.5v1069q-27 40 -77.5 66t-105.5 26q-86 0 -139 -74 q-63 -81 -63 -288v-109h239q8 -13 2 -42t-22 -38h-219v-610q0 -95 21.5 -119t115.5 -33v-53h-443v53q36 4 56.5 7t39 10.5t26 16t14 26t7.5 37.5t1 55v610h-144z" />
</font>
</defs>
</svg>
